<svg width="220" height="56" viewBox="0 0 220 56" fill="none" xmlns="http://www.w3.org/2000/svg">
<rect x="0.5" y="0.5" width="55" height="55" rx="27.5" stroke="white"/>
<path d="M29 35L37 28L29 21" stroke="white" stroke-width="2" stroke-miterlimit="10" stroke-linecap="round" stroke-linejoin="round"/>
<path d="M37 28H19" stroke="white" stroke-width="2" stroke-miterlimit="10" stroke-linecap="round" stroke-linejoin="round"/>
<path d="M73.3711 21.2625H82.5557V23.5389H76.0605V26.5184H81.7471V28.7684H76.0605V34.2H73.3711V21.2625ZM86.8535 34.2H84.1641V21.2449H86.8535V34.2ZM89.3408 21.2449H92.1797L97.3389 30.2889V21.2449H99.8613V34.2H97.1543L91.8633 24.9979V34.2H89.3408V21.2449ZM105.021 23.4949V31.95H107.517C108.794 31.95 109.685 31.3201 110.188 30.0604C110.464 29.369 110.602 28.5457 110.602 27.5906C110.602 26.2723 110.394 25.2615 109.978 24.5584C109.567 23.8494 108.747 23.4949 107.517 23.4949H105.021ZM107.974 21.2449C108.776 21.2567 109.444 21.3504 109.978 21.5262C110.886 21.825 111.621 22.3729 112.184 23.1697C112.635 23.8143 112.942 24.5115 113.106 25.2615C113.271 26.0115 113.353 26.7264 113.353 27.4061C113.353 29.1287 113.007 30.5877 112.315 31.783C111.378 33.3943 109.931 34.2 107.974 34.2H102.393V21.2449H107.974ZM126.141 32.2664C127.213 32.2664 128.062 31.8709 128.689 31.0799C129.322 30.2889 129.639 29.1639 129.639 27.7049C129.639 26.2518 129.322 25.1297 128.689 24.3387C128.062 23.5418 127.213 23.1434 126.141 23.1434C125.068 23.1434 124.213 23.5389 123.574 24.3299C122.936 25.1209 122.616 26.2459 122.616 27.7049C122.616 29.1639 122.936 30.2889 123.574 31.0799C124.213 31.8709 125.068 32.2664 126.141 32.2664ZM132.346 27.7049C132.346 30.0311 131.692 31.8123 130.386 33.0486C129.407 34.0565 127.992 34.5604 126.141 34.5604C124.289 34.5604 122.874 34.0565 121.896 33.0486C120.583 31.8123 119.927 30.0311 119.927 27.7049C119.927 25.3318 120.583 23.5506 121.896 22.3611C122.874 21.3533 124.289 20.8494 126.141 20.8494C127.992 20.8494 129.407 21.3533 130.386 22.3611C131.692 23.5506 132.346 25.3318 132.346 27.7049ZM134.42 21.2449H137.171V29.2078C137.171 30.0984 137.276 30.7488 137.487 31.159C137.815 31.8856 138.53 32.2488 139.632 32.2488C140.728 32.2488 141.439 31.8856 141.768 31.159C141.979 30.7488 142.084 30.0984 142.084 29.2078V21.2449H144.835V29.2078C144.835 30.5848 144.621 31.657 144.193 32.4246C143.396 33.8309 141.876 34.534 139.632 34.534C137.388 34.534 135.864 33.8309 135.062 32.4246C134.634 31.657 134.42 30.5848 134.42 29.2078V21.2449ZM156.841 21.2449V23.5389H152.965V34.2H150.24V23.5389H146.347V21.2449H156.841ZM172.028 21.2449H175.922V34.2H173.399V25.4373C173.399 25.1854 173.402 24.8338 173.408 24.3826C173.414 23.9256 173.417 23.574 173.417 23.3279L170.965 34.2H168.337L165.902 23.3279C165.902 23.574 165.905 23.9256 165.911 24.3826C165.917 24.8338 165.92 25.1854 165.92 25.4373V34.2H163.397V21.2449H167.335L169.69 31.4315L172.028 21.2449ZM184.166 32.2664C185.238 32.2664 186.088 31.8709 186.715 31.0799C187.348 30.2889 187.664 29.1639 187.664 27.7049C187.664 26.2518 187.348 25.1297 186.715 24.3387C186.088 23.5418 185.238 23.1434 184.166 23.1434C183.094 23.1434 182.238 23.5389 181.6 24.3299C180.961 25.1209 180.642 26.2459 180.642 27.7049C180.642 29.1639 180.961 30.2889 181.6 31.0799C182.238 31.8709 183.094 32.2664 184.166 32.2664ZM190.371 27.7049C190.371 30.0311 189.718 31.8123 188.411 33.0486C187.433 34.0565 186.018 34.5604 184.166 34.5604C182.314 34.5604 180.899 34.0565 179.921 33.0486C178.608 31.8123 177.952 30.0311 177.952 27.7049C177.952 25.3318 178.608 23.5506 179.921 22.3611C180.899 21.3533 182.314 20.8494 184.166 20.8494C186.018 20.8494 187.433 21.3533 188.411 22.3611C189.718 23.5506 190.371 25.3318 190.371 27.7049ZM195.152 23.4949V26.9754H198.22C198.829 26.9754 199.286 26.9051 199.591 26.7645C200.13 26.5184 200.399 26.032 200.399 25.3055C200.399 24.5203 200.139 23.993 199.617 23.7234C199.324 23.5711 198.885 23.4949 198.299 23.4949H195.152ZM198.861 21.2449C199.77 21.2625 200.467 21.3738 200.953 21.5789C201.445 21.784 201.861 22.0858 202.201 22.4842C202.482 22.8123 202.705 23.1756 202.869 23.574C203.033 23.9725 203.115 24.4266 203.115 24.9363C203.115 25.5516 202.96 26.158 202.649 26.7557C202.339 27.3475 201.826 27.7664 201.111 28.0125C201.709 28.2527 202.131 28.5955 202.377 29.0408C202.629 29.4803 202.755 30.1541 202.755 31.0623V31.9324C202.755 32.5242 202.778 32.9256 202.825 33.1365C202.896 33.4705 203.06 33.7166 203.317 33.8748V34.2H200.338C200.256 33.9129 200.197 33.6815 200.162 33.5057C200.092 33.1424 200.054 32.7703 200.048 32.3895L200.03 31.1854C200.019 30.3592 199.866 29.8084 199.573 29.533C199.286 29.2576 198.744 29.1199 197.947 29.1199H195.152V34.2H192.507V21.2449H198.861ZM215.033 23.5389H208.178V26.2899H214.471V28.5399H208.178V31.8709H215.35V34.2H205.532V21.2449H215.033V23.5389Z" fill="white"/>
</svg>
