<svg width="420" height="187" viewBox="0 0 420 187" fill="none" xmlns="http://www.w3.org/2000/svg">
<path d="M3.98584 3.74268V10H2.69141V5.24658L0.994141 5.69238V4.67188L3.84082 3.74268H3.98584ZM12.0166 6.3208V7.42188C12.0166 7.87663 11.9593 8.2723 11.8447 8.60889C11.7337 8.94189 11.5744 9.21761 11.3667 9.43604C11.1626 9.65446 10.9155 9.81738 10.6255 9.9248C10.339 10.0322 10.0203 10.0859 9.66943 10.0859C9.31852 10.0859 8.99805 10.0322 8.70801 9.9248C8.42155 9.81738 8.17448 9.65446 7.9668 9.43604C7.75911 9.21761 7.59798 8.94189 7.4834 8.60889C7.36882 8.2723 7.31152 7.87663 7.31152 7.42188V6.3208C7.31152 5.86605 7.36702 5.47217 7.47803 5.13916C7.59261 4.80615 7.75374 4.53044 7.96143 4.31201C8.16911 4.09001 8.41618 3.92529 8.70264 3.81787C8.9891 3.71045 9.30778 3.65674 9.65869 3.65674C10.0096 3.65674 10.3301 3.71045 10.6201 3.81787C10.9102 3.92529 11.159 4.09001 11.3667 4.31201C11.5744 4.53044 11.7337 4.80615 11.8447 5.13916C11.9593 5.47217 12.0166 5.86605 12.0166 6.3208ZM10.7168 7.52393V6.20801C10.7168 5.94661 10.6935 5.72103 10.647 5.53125C10.6004 5.33789 10.5324 5.17855 10.4429 5.05322C10.3534 4.9279 10.2424 4.83659 10.1099 4.7793C9.98096 4.71842 9.83057 4.68799 9.65869 4.68799C9.49398 4.68799 9.34538 4.71842 9.21289 4.7793C9.08398 4.83659 8.97477 4.9279 8.88525 5.05322C8.79574 5.17855 8.7277 5.33789 8.68115 5.53125C8.6346 5.72103 8.61133 5.94661 8.61133 6.20801V7.52393C8.61133 7.7889 8.6346 8.01807 8.68115 8.21143C8.7277 8.40479 8.79574 8.56413 8.88525 8.68945C8.97835 8.81478 9.09115 8.90788 9.22363 8.96875C9.35612 9.02962 9.50472 9.06006 9.66943 9.06006C9.83773 9.06006 9.98633 9.02962 10.1152 8.96875C10.2477 8.90788 10.3587 8.81478 10.4482 8.68945C10.5378 8.56413 10.604 8.40479 10.647 8.21143C10.6935 8.01807 10.7168 7.7889 10.7168 7.52393ZM18.6777 6.3208V7.42188C18.6777 7.87663 18.6204 8.2723 18.5059 8.60889C18.3949 8.94189 18.2355 9.21761 18.0278 9.43604C17.8237 9.65446 17.5767 9.81738 17.2866 9.9248C17.0002 10.0322 16.6815 10.0859 16.3306 10.0859C15.9797 10.0859 15.6592 10.0322 15.3691 9.9248C15.0827 9.81738 14.8356 9.65446 14.6279 9.43604C14.4202 9.21761 14.2591 8.94189 14.1445 8.60889C14.0299 8.2723 13.9727 7.87663 13.9727 7.42188V6.3208C13.9727 5.86605 14.0282 5.47217 14.1392 5.13916C14.2537 4.80615 14.4149 4.53044 14.6226 4.31201C14.8302 4.09001 15.0773 3.92529 15.3638 3.81787C15.6502 3.71045 15.9689 3.65674 16.3198 3.65674C16.6707 3.65674 16.9912 3.71045 17.2812 3.81787C17.5713 3.92529 17.8201 4.09001 18.0278 4.31201C18.2355 4.53044 18.3949 4.80615 18.5059 5.13916C18.6204 5.47217 18.6777 5.86605 18.6777 6.3208ZM17.3779 7.52393V6.20801C17.3779 5.94661 17.3547 5.72103 17.3081 5.53125C17.2616 5.33789 17.1935 5.17855 17.104 5.05322C17.0145 4.9279 16.9035 4.83659 16.771 4.7793C16.6421 4.71842 16.4917 4.68799 16.3198 4.68799C16.1551 4.68799 16.0065 4.71842 15.874 4.7793C15.7451 4.83659 15.6359 4.9279 15.5464 5.05322C15.4569 5.17855 15.3888 5.33789 15.3423 5.53125C15.2957 5.72103 15.2725 5.94661 15.2725 6.20801V7.52393C15.2725 7.7889 15.2957 8.01807 15.3423 8.21143C15.3888 8.40479 15.4569 8.56413 15.5464 8.68945C15.6395 8.81478 15.7523 8.90788 15.8848 8.96875C16.0173 9.02962 16.1659 9.06006 16.3306 9.06006C16.4989 9.06006 16.6475 9.02962 16.7764 8.96875C16.9089 8.90788 17.0199 8.81478 17.1094 8.68945C17.1989 8.56413 17.2651 8.40479 17.3081 8.21143C17.3547 8.01807 17.3779 7.7889 17.3779 7.52393ZM25.3389 6.3208V7.42188C25.3389 7.87663 25.2816 8.2723 25.167 8.60889C25.056 8.94189 24.8966 9.21761 24.689 9.43604C24.4849 9.65446 24.2378 9.81738 23.9478 9.9248C23.6613 10.0322 23.3426 10.0859 22.9917 10.0859C22.6408 10.0859 22.3203 10.0322 22.0303 9.9248C21.7438 9.81738 21.4967 9.65446 21.2891 9.43604C21.0814 9.21761 20.9202 8.94189 20.8057 8.60889C20.6911 8.2723 20.6338 7.87663 20.6338 7.42188V6.3208C20.6338 5.86605 20.6893 5.47217 20.8003 5.13916C20.9149 4.80615 21.076 4.53044 21.2837 4.31201C21.4914 4.09001 21.7384 3.92529 22.0249 3.81787C22.3114 3.71045 22.63 3.65674 22.981 3.65674C23.3319 3.65674 23.6523 3.71045 23.9424 3.81787C24.2324 3.92529 24.4813 4.09001 24.689 4.31201C24.8966 4.53044 25.056 4.80615 25.167 5.13916C25.2816 5.47217 25.3389 5.86605 25.3389 6.3208ZM24.0391 7.52393V6.20801C24.0391 5.94661 24.0158 5.72103 23.9692 5.53125C23.9227 5.33789 23.8547 5.17855 23.7651 5.05322C23.6756 4.9279 23.5646 4.83659 23.4321 4.7793C23.3032 4.71842 23.1528 4.68799 22.981 4.68799C22.8162 4.68799 22.6676 4.71842 22.5352 4.7793C22.4062 4.83659 22.297 4.9279 22.2075 5.05322C22.118 5.17855 22.05 5.33789 22.0034 5.53125C21.9569 5.72103 21.9336 5.94661 21.9336 6.20801V7.52393C21.9336 7.7889 21.9569 8.01807 22.0034 8.21143C22.05 8.40479 22.118 8.56413 22.2075 8.68945C22.3006 8.81478 22.4134 8.90788 22.5459 8.96875C22.6784 9.02962 22.827 9.06006 22.9917 9.06006C23.16 9.06006 23.3086 9.02962 23.4375 8.96875C23.57 8.90788 23.681 8.81478 23.7705 8.68945C23.86 8.56413 23.9263 8.40479 23.9692 8.21143C24.0158 8.01807 24.0391 7.7889 24.0391 7.52393Z" fill="#949494"/>
<path d="M43 6.5L31 6.5" stroke="white"/>
<path d="M12.1968 42.2866C12.1968 42.5838 12.1359 42.8452 12.0142 43.0708C11.896 43.2928 11.7313 43.479 11.52 43.6294C11.3088 43.7798 11.0599 43.8944 10.7734 43.9731C10.487 44.0483 10.1755 44.0859 9.83887 44.0859C9.39128 44.0859 8.98844 44.0197 8.63037 43.8872C8.27588 43.7511 7.99479 43.5488 7.78711 43.2803C7.57943 43.0117 7.47559 42.6805 7.47559 42.2866C7.47559 42.0145 7.53288 41.7728 7.64746 41.5615C7.76562 41.3467 7.93034 41.1641 8.1416 41.0137C8.35645 40.8597 8.60531 40.7433 8.88818 40.6646C9.17464 40.5822 9.48796 40.541 9.82812 40.541C10.1683 40.541 10.4816 40.5822 10.7681 40.6646C11.0581 40.7433 11.3088 40.8597 11.52 41.0137C11.7349 41.1641 11.9014 41.3467 12.0195 41.5615C12.1377 41.7728 12.1968 42.0145 12.1968 42.2866ZM10.897 42.1846C10.897 42.002 10.8522 41.8462 10.7627 41.7173C10.6732 41.5884 10.5479 41.4899 10.3867 41.4219C10.2256 41.3503 10.0394 41.3145 9.82812 41.3145C9.61686 41.3145 9.43066 41.3503 9.26953 41.4219C9.11198 41.4899 8.98844 41.5884 8.89893 41.7173C8.81299 41.8462 8.77002 42.002 8.77002 42.1846C8.77002 42.3672 8.81299 42.5247 8.89893 42.6572C8.98844 42.7861 9.11377 42.8864 9.2749 42.958C9.43604 43.026 9.62402 43.0601 9.83887 43.0601C10.0501 43.0601 10.2345 43.026 10.3921 42.958C10.5532 42.8864 10.6768 42.7861 10.7627 42.6572C10.8522 42.5247 10.897 42.3672 10.897 42.1846ZM12.041 39.4077C12.041 39.6512 11.9855 39.8732 11.8745 40.0737C11.7671 40.2707 11.6149 40.4425 11.418 40.5894C11.221 40.7326 10.9883 40.8436 10.7197 40.9224C10.4548 40.9976 10.1611 41.0352 9.83887 41.0352C9.5166 41.0352 9.22119 40.9976 8.95264 40.9224C8.68408 40.8436 8.45133 40.7326 8.25439 40.5894C8.05745 40.4425 7.90348 40.2707 7.79248 40.0737C7.68506 39.8732 7.63135 39.6512 7.63135 39.4077C7.63135 39.0282 7.72445 38.7095 7.91064 38.4517C8.10042 38.1903 8.36182 37.9933 8.69482 37.8608C9.02783 37.7248 9.4056 37.6567 9.82812 37.6567C10.2578 37.6567 10.6374 37.7248 10.9668 37.8608C11.2998 37.9933 11.5612 38.1903 11.751 38.4517C11.9443 38.7095 12.041 39.0282 12.041 39.4077ZM10.7466 39.4722C10.7466 39.3146 10.709 39.1768 10.6338 39.0586C10.5586 38.9368 10.453 38.8438 10.3169 38.7793C10.1808 38.7148 10.0179 38.6826 9.82812 38.6826C9.64193 38.6826 9.48079 38.7148 9.34473 38.7793C9.21224 38.8438 9.1084 38.9351 9.0332 39.0532C8.96159 39.1678 8.92578 39.3075 8.92578 39.4722C8.92578 39.6333 8.96159 39.7747 9.0332 39.8965C9.1084 40.0182 9.21403 40.1131 9.3501 40.1812C9.48975 40.2492 9.65267 40.2832 9.83887 40.2832C10.0286 40.2832 10.1898 40.2492 10.3223 40.1812C10.4583 40.1131 10.5622 40.0182 10.6338 39.8965C10.709 39.7747 10.7466 39.6333 10.7466 39.4722ZM18.8472 40.3208V41.4219C18.8472 41.8766 18.7899 42.2723 18.6753 42.6089C18.5643 42.9419 18.4049 43.2176 18.1973 43.436C17.9932 43.6545 17.7461 43.8174 17.4561 43.9248C17.1696 44.0322 16.8509 44.0859 16.5 44.0859C16.1491 44.0859 15.8286 44.0322 15.5386 43.9248C15.2521 43.8174 15.005 43.6545 14.7974 43.436C14.5897 43.2176 14.4285 42.9419 14.314 42.6089C14.1994 42.2723 14.1421 41.8766 14.1421 41.4219V40.3208C14.1421 39.866 14.1976 39.4722 14.3086 39.1392C14.4232 38.8062 14.5843 38.5304 14.792 38.312C14.9997 38.09 15.2467 37.9253 15.5332 37.8179C15.8197 37.7104 16.1383 37.6567 16.4893 37.6567C16.8402 37.6567 17.1606 37.7104 17.4507 37.8179C17.7407 37.9253 17.9896 38.09 18.1973 38.312C18.4049 38.5304 18.5643 38.8062 18.6753 39.1392C18.7899 39.4722 18.8472 39.866 18.8472 40.3208ZM17.5474 41.5239V40.208C17.5474 39.9466 17.5241 39.721 17.4775 39.5312C17.431 39.3379 17.363 39.1785 17.2734 39.0532C17.1839 38.9279 17.0729 38.8366 16.9404 38.7793C16.8115 38.7184 16.6611 38.688 16.4893 38.688C16.3245 38.688 16.1759 38.7184 16.0435 38.7793C15.9146 38.8366 15.8053 38.9279 15.7158 39.0532C15.6263 39.1785 15.5583 39.3379 15.5117 39.5312C15.4652 39.721 15.4419 39.9466 15.4419 40.208V41.5239C15.4419 41.7889 15.4652 42.0181 15.5117 42.2114C15.5583 42.4048 15.6263 42.5641 15.7158 42.6895C15.8089 42.8148 15.9217 42.9079 16.0542 42.9688C16.1867 43.0296 16.3353 43.0601 16.5 43.0601C16.6683 43.0601 16.8169 43.0296 16.9458 42.9688C17.0783 42.9079 17.1893 42.8148 17.2788 42.6895C17.3683 42.5641 17.4346 42.4048 17.4775 42.2114C17.5241 42.0181 17.5474 41.7889 17.5474 41.5239ZM25.5083 40.3208V41.4219C25.5083 41.8766 25.451 42.2723 25.3364 42.6089C25.2254 42.9419 25.0661 43.2176 24.8584 43.436C24.6543 43.6545 24.4072 43.8174 24.1172 43.9248C23.8307 44.0322 23.512 44.0859 23.1611 44.0859C22.8102 44.0859 22.4897 44.0322 22.1997 43.9248C21.9132 43.8174 21.6662 43.6545 21.4585 43.436C21.2508 43.2176 21.0897 42.9419 20.9751 42.6089C20.8605 42.2723 20.8032 41.8766 20.8032 41.4219V40.3208C20.8032 39.866 20.8587 39.4722 20.9697 39.1392C21.0843 38.8062 21.2454 38.5304 21.4531 38.312C21.6608 38.09 21.9079 37.9253 22.1943 37.8179C22.4808 37.7104 22.7995 37.6567 23.1504 37.6567C23.5013 37.6567 23.8218 37.7104 24.1118 37.8179C24.4019 37.9253 24.6507 38.09 24.8584 38.312C25.0661 38.5304 25.2254 38.8062 25.3364 39.1392C25.451 39.4722 25.5083 39.866 25.5083 40.3208ZM24.2085 41.5239V40.208C24.2085 39.9466 24.1852 39.721 24.1387 39.5312C24.0921 39.3379 24.0241 39.1785 23.9346 39.0532C23.8451 38.9279 23.734 38.8366 23.6016 38.7793C23.4727 38.7184 23.3223 38.688 23.1504 38.688C22.9857 38.688 22.8371 38.7184 22.7046 38.7793C22.5757 38.8366 22.4665 38.9279 22.377 39.0532C22.2874 39.1785 22.2194 39.3379 22.1729 39.5312C22.1263 39.721 22.103 39.9466 22.103 40.208V41.5239C22.103 41.7889 22.1263 42.0181 22.1729 42.2114C22.2194 42.4048 22.2874 42.5641 22.377 42.6895C22.4701 42.8148 22.5828 42.9079 22.7153 42.9688C22.8478 43.0296 22.9964 43.0601 23.1611 43.0601C23.3294 43.0601 23.478 43.0296 23.6069 42.9688C23.7394 42.9079 23.8504 42.8148 23.9399 42.6895C24.0295 42.5641 24.0957 42.4048 24.1387 42.2114C24.1852 42.0181 24.2085 41.7889 24.2085 41.5239Z" fill="#949494"/>
<path d="M43 40.5H31" stroke="white"/>
<path d="M11.0688 71.6675H11.2515V72.7202H11.1655C10.7824 72.7202 10.444 72.7632 10.1504 72.8491C9.86035 72.9315 9.61507 73.0586 9.41455 73.2305C9.21761 73.4023 9.06722 73.619 8.96338 73.8804C8.86312 74.1418 8.81299 74.4479 8.81299 74.7988V75.7173C8.81299 75.9393 8.83984 76.1344 8.89355 76.3027C8.95085 76.471 9.02962 76.6125 9.12988 76.7271C9.23014 76.8381 9.34831 76.9222 9.48438 76.9795C9.62402 77.0332 9.77441 77.0601 9.93555 77.0601C10.154 77.0601 10.3438 77.0117 10.5049 76.915C10.666 76.8148 10.7896 76.6805 10.8755 76.5122C10.965 76.3403 11.0098 76.1506 11.0098 75.9429C11.0098 75.728 10.9668 75.54 10.8809 75.3789C10.7985 75.2178 10.6768 75.0924 10.5156 75.0029C10.3581 74.9098 10.1647 74.8633 9.93555 74.8633C9.70638 74.8633 9.50049 74.908 9.31787 74.9976C9.13883 75.0835 8.99561 75.1945 8.88818 75.3306C8.78434 75.4666 8.72884 75.6099 8.72168 75.7603L8.37256 75.3789C8.3833 75.1497 8.46745 74.9188 8.625 74.686C8.78255 74.4497 9.00277 74.251 9.28564 74.0898C9.56852 73.9251 9.90332 73.8428 10.29 73.8428C10.7376 73.8428 11.1082 73.9359 11.4019 74.1221C11.6991 74.3083 11.9211 74.5607 12.0679 74.8794C12.2183 75.1945 12.2935 75.5454 12.2935 75.9321C12.2935 76.3403 12.1986 76.7074 12.0088 77.0332C11.819 77.3555 11.5505 77.6115 11.2031 77.8013C10.8558 77.991 10.4422 78.0859 9.9624 78.0859C9.59001 78.0859 9.25342 78.0286 8.95264 77.9141C8.65186 77.7959 8.39404 77.6294 8.1792 77.4146C7.96794 77.1961 7.80501 76.9347 7.69043 76.6304C7.57585 76.3224 7.51855 75.9769 7.51855 75.5938V75.1641C7.51855 74.6162 7.59554 74.1274 7.74951 73.6978C7.90706 73.2645 8.13623 72.8975 8.43701 72.5967C8.74137 72.2923 9.11377 72.0614 9.5542 71.9038C9.99463 71.7463 10.4995 71.6675 11.0688 71.6675ZM18.8472 74.3208V75.4219C18.8472 75.8766 18.7899 76.2723 18.6753 76.6089C18.5643 76.9419 18.4049 77.2176 18.1973 77.436C17.9932 77.6545 17.7461 77.8174 17.4561 77.9248C17.1696 78.0322 16.8509 78.0859 16.5 78.0859C16.1491 78.0859 15.8286 78.0322 15.5386 77.9248C15.2521 77.8174 15.005 77.6545 14.7974 77.436C14.5897 77.2176 14.4285 76.9419 14.314 76.6089C14.1994 76.2723 14.1421 75.8766 14.1421 75.4219V74.3208C14.1421 73.866 14.1976 73.4722 14.3086 73.1392C14.4232 72.8062 14.5843 72.5304 14.792 72.312C14.9997 72.09 15.2467 71.9253 15.5332 71.8179C15.8197 71.7104 16.1383 71.6567 16.4893 71.6567C16.8402 71.6567 17.1606 71.7104 17.4507 71.8179C17.7407 71.9253 17.9896 72.09 18.1973 72.312C18.4049 72.5304 18.5643 72.8062 18.6753 73.1392C18.7899 73.4722 18.8472 73.866 18.8472 74.3208ZM17.5474 75.5239V74.208C17.5474 73.9466 17.5241 73.721 17.4775 73.5312C17.431 73.3379 17.363 73.1785 17.2734 73.0532C17.1839 72.9279 17.0729 72.8366 16.9404 72.7793C16.8115 72.7184 16.6611 72.688 16.4893 72.688C16.3245 72.688 16.1759 72.7184 16.0435 72.7793C15.9146 72.8366 15.8053 72.9279 15.7158 73.0532C15.6263 73.1785 15.5583 73.3379 15.5117 73.5312C15.4652 73.721 15.4419 73.9466 15.4419 74.208V75.5239C15.4419 75.7889 15.4652 76.0181 15.5117 76.2114C15.5583 76.4048 15.6263 76.5641 15.7158 76.6895C15.8089 76.8148 15.9217 76.9079 16.0542 76.9688C16.1867 77.0296 16.3353 77.0601 16.5 77.0601C16.6683 77.0601 16.8169 77.0296 16.9458 76.9688C17.0783 76.9079 17.1893 76.8148 17.2788 76.6895C17.3683 76.5641 17.4346 76.4048 17.4775 76.2114C17.5241 76.0181 17.5474 75.7889 17.5474 75.5239ZM25.5083 74.3208V75.4219C25.5083 75.8766 25.451 76.2723 25.3364 76.6089C25.2254 76.9419 25.0661 77.2176 24.8584 77.436C24.6543 77.6545 24.4072 77.8174 24.1172 77.9248C23.8307 78.0322 23.512 78.0859 23.1611 78.0859C22.8102 78.0859 22.4897 78.0322 22.1997 77.9248C21.9132 77.8174 21.6662 77.6545 21.4585 77.436C21.2508 77.2176 21.0897 76.9419 20.9751 76.6089C20.8605 76.2723 20.8032 75.8766 20.8032 75.4219V74.3208C20.8032 73.866 20.8587 73.4722 20.9697 73.1392C21.0843 72.8062 21.2454 72.5304 21.4531 72.312C21.6608 72.09 21.9079 71.9253 22.1943 71.8179C22.4808 71.7104 22.7995 71.6567 23.1504 71.6567C23.5013 71.6567 23.8218 71.7104 24.1118 71.8179C24.4019 71.9253 24.6507 72.09 24.8584 72.312C25.0661 72.5304 25.2254 72.8062 25.3364 73.1392C25.451 73.4722 25.5083 73.866 25.5083 74.3208ZM24.2085 75.5239V74.208C24.2085 73.9466 24.1852 73.721 24.1387 73.5312C24.0921 73.3379 24.0241 73.1785 23.9346 73.0532C23.8451 72.9279 23.734 72.8366 23.6016 72.7793C23.4727 72.7184 23.3223 72.688 23.1504 72.688C22.9857 72.688 22.8371 72.7184 22.7046 72.7793C22.5757 72.8366 22.4665 72.9279 22.377 73.0532C22.2874 73.1785 22.2194 73.3379 22.1729 73.5312C22.1263 73.721 22.103 73.9466 22.103 74.208V75.5239C22.103 75.7889 22.1263 76.0181 22.1729 76.2114C22.2194 76.4048 22.2874 76.5641 22.377 76.6895C22.4701 76.8148 22.5828 76.9079 22.7153 76.9688C22.8478 77.0296 22.9964 77.0601 23.1611 77.0601C23.3294 77.0601 23.478 77.0296 23.6069 76.9688C23.7394 76.9079 23.8504 76.8148 23.9399 76.6895C24.0295 76.5641 24.0957 76.4048 24.1387 76.2114C24.1852 76.0181 24.2085 75.7889 24.2085 75.5239Z" fill="#949494"/>
<path d="M43 74.5H31" stroke="white"/>
<path d="M12.4062 109.621V110.652H7.33594L7.28223 109.841L10.2578 105.743H11.2729L10.1558 107.563L8.58203 109.621H12.4062ZM11.5737 105.743V112H10.2793V105.743H11.5737ZM18.8472 108.321V109.422C18.8472 109.877 18.7899 110.272 18.6753 110.609C18.5643 110.942 18.4049 111.218 18.1973 111.436C17.9932 111.654 17.7461 111.817 17.4561 111.925C17.1696 112.032 16.8509 112.086 16.5 112.086C16.1491 112.086 15.8286 112.032 15.5386 111.925C15.2521 111.817 15.005 111.654 14.7974 111.436C14.5897 111.218 14.4285 110.942 14.314 110.609C14.1994 110.272 14.1421 109.877 14.1421 109.422V108.321C14.1421 107.866 14.1976 107.472 14.3086 107.139C14.4232 106.806 14.5843 106.53 14.792 106.312C14.9997 106.09 15.2467 105.925 15.5332 105.818C15.8197 105.71 16.1383 105.657 16.4893 105.657C16.8402 105.657 17.1606 105.71 17.4507 105.818C17.7407 105.925 17.9896 106.09 18.1973 106.312C18.4049 106.53 18.5643 106.806 18.6753 107.139C18.7899 107.472 18.8472 107.866 18.8472 108.321ZM17.5474 109.524V108.208C17.5474 107.947 17.5241 107.721 17.4775 107.531C17.431 107.338 17.363 107.179 17.2734 107.053C17.1839 106.928 17.0729 106.837 16.9404 106.779C16.8115 106.718 16.6611 106.688 16.4893 106.688C16.3245 106.688 16.1759 106.718 16.0435 106.779C15.9146 106.837 15.8053 106.928 15.7158 107.053C15.6263 107.179 15.5583 107.338 15.5117 107.531C15.4652 107.721 15.4419 107.947 15.4419 108.208V109.524C15.4419 109.789 15.4652 110.018 15.5117 110.211C15.5583 110.405 15.6263 110.564 15.7158 110.689C15.8089 110.815 15.9217 110.908 16.0542 110.969C16.1867 111.03 16.3353 111.06 16.5 111.06C16.6683 111.06 16.8169 111.03 16.9458 110.969C17.0783 110.908 17.1893 110.815 17.2788 110.689C17.3683 110.564 17.4346 110.405 17.4775 110.211C17.5241 110.018 17.5474 109.789 17.5474 109.524ZM25.5083 108.321V109.422C25.5083 109.877 25.451 110.272 25.3364 110.609C25.2254 110.942 25.0661 111.218 24.8584 111.436C24.6543 111.654 24.4072 111.817 24.1172 111.925C23.8307 112.032 23.512 112.086 23.1611 112.086C22.8102 112.086 22.4897 112.032 22.1997 111.925C21.9132 111.817 21.6662 111.654 21.4585 111.436C21.2508 111.218 21.0897 110.942 20.9751 110.609C20.8605 110.272 20.8032 109.877 20.8032 109.422V108.321C20.8032 107.866 20.8587 107.472 20.9697 107.139C21.0843 106.806 21.2454 106.53 21.4531 106.312C21.6608 106.09 21.9079 105.925 22.1943 105.818C22.4808 105.71 22.7995 105.657 23.1504 105.657C23.5013 105.657 23.8218 105.71 24.1118 105.818C24.4019 105.925 24.6507 106.09 24.8584 106.312C25.0661 106.53 25.2254 106.806 25.3364 107.139C25.451 107.472 25.5083 107.866 25.5083 108.321ZM24.2085 109.524V108.208C24.2085 107.947 24.1852 107.721 24.1387 107.531C24.0921 107.338 24.0241 107.179 23.9346 107.053C23.8451 106.928 23.734 106.837 23.6016 106.779C23.4727 106.718 23.3223 106.688 23.1504 106.688C22.9857 106.688 22.8371 106.718 22.7046 106.779C22.5757 106.837 22.4665 106.928 22.377 107.053C22.2874 107.179 22.2194 107.338 22.1729 107.531C22.1263 107.721 22.103 107.947 22.103 108.208V109.524C22.103 109.789 22.1263 110.018 22.1729 110.211C22.2194 110.405 22.2874 110.564 22.377 110.689C22.4701 110.815 22.5828 110.908 22.7153 110.969C22.8478 111.03 22.9964 111.06 23.1611 111.06C23.3294 111.06 23.478 111.03 23.6069 110.969C23.7394 110.908 23.8504 110.815 23.9399 110.689C24.0295 110.564 24.0957 110.405 24.1387 110.211C24.1852 110.018 24.2085 109.789 24.2085 109.524Z" fill="#949494"/>
<path d="M43 108.5H31" stroke="white"/>
<path d="M12.2827 144.974V146H7.50781V145.125L9.79053 142.987C10.0269 142.768 10.2131 142.573 10.3491 142.401C10.4888 142.226 10.589 142.068 10.6499 141.929C10.7108 141.785 10.7412 141.657 10.7412 141.542C10.7412 141.291 10.6589 141.085 10.4941 140.924C10.3294 140.763 10.0931 140.683 9.78516 140.683C9.53092 140.683 9.31966 140.729 9.15137 140.822C8.98665 140.912 8.86491 141.035 8.78613 141.193C8.70736 141.35 8.66797 141.529 8.66797 141.73H7.36816C7.36816 141.35 7.46305 141.003 7.65283 140.688C7.84261 140.373 8.11475 140.122 8.46924 139.936C8.82731 139.75 9.25521 139.657 9.75293 139.657C10.2327 139.657 10.6427 139.732 10.9829 139.882C11.3267 140.033 11.5881 140.249 11.7671 140.532C11.9461 140.812 12.0356 141.143 12.0356 141.526C12.0356 141.737 11.9998 141.938 11.9282 142.127C11.8602 142.317 11.7599 142.502 11.6274 142.681C11.495 142.86 11.3338 143.042 11.144 143.229C10.9543 143.415 10.7394 143.613 10.4995 143.825L9.16748 144.974H12.2827ZM18.8472 142.321V143.422C18.8472 143.877 18.7899 144.272 18.6753 144.609C18.5643 144.942 18.4049 145.218 18.1973 145.436C17.9932 145.654 17.7461 145.817 17.4561 145.925C17.1696 146.032 16.8509 146.086 16.5 146.086C16.1491 146.086 15.8286 146.032 15.5386 145.925C15.2521 145.817 15.005 145.654 14.7974 145.436C14.5897 145.218 14.4285 144.942 14.314 144.609C14.1994 144.272 14.1421 143.877 14.1421 143.422V142.321C14.1421 141.866 14.1976 141.472 14.3086 141.139C14.4232 140.806 14.5843 140.53 14.792 140.312C14.9997 140.09 15.2467 139.925 15.5332 139.818C15.8197 139.71 16.1383 139.657 16.4893 139.657C16.8402 139.657 17.1606 139.71 17.4507 139.818C17.7407 139.925 17.9896 140.09 18.1973 140.312C18.4049 140.53 18.5643 140.806 18.6753 141.139C18.7899 141.472 18.8472 141.866 18.8472 142.321ZM17.5474 143.524V142.208C17.5474 141.947 17.5241 141.721 17.4775 141.531C17.431 141.338 17.363 141.179 17.2734 141.053C17.1839 140.928 17.0729 140.837 16.9404 140.779C16.8115 140.718 16.6611 140.688 16.4893 140.688C16.3245 140.688 16.1759 140.718 16.0435 140.779C15.9146 140.837 15.8053 140.928 15.7158 141.053C15.6263 141.179 15.5583 141.338 15.5117 141.531C15.4652 141.721 15.4419 141.947 15.4419 142.208V143.524C15.4419 143.789 15.4652 144.018 15.5117 144.211C15.5583 144.405 15.6263 144.564 15.7158 144.689C15.8089 144.815 15.9217 144.908 16.0542 144.969C16.1867 145.03 16.3353 145.06 16.5 145.06C16.6683 145.06 16.8169 145.03 16.9458 144.969C17.0783 144.908 17.1893 144.815 17.2788 144.689C17.3683 144.564 17.4346 144.405 17.4775 144.211C17.5241 144.018 17.5474 143.789 17.5474 143.524ZM25.5083 142.321V143.422C25.5083 143.877 25.451 144.272 25.3364 144.609C25.2254 144.942 25.0661 145.218 24.8584 145.436C24.6543 145.654 24.4072 145.817 24.1172 145.925C23.8307 146.032 23.512 146.086 23.1611 146.086C22.8102 146.086 22.4897 146.032 22.1997 145.925C21.9132 145.817 21.6662 145.654 21.4585 145.436C21.2508 145.218 21.0897 144.942 20.9751 144.609C20.8605 144.272 20.8032 143.877 20.8032 143.422V142.321C20.8032 141.866 20.8587 141.472 20.9697 141.139C21.0843 140.806 21.2454 140.53 21.4531 140.312C21.6608 140.09 21.9079 139.925 22.1943 139.818C22.4808 139.71 22.7995 139.657 23.1504 139.657C23.5013 139.657 23.8218 139.71 24.1118 139.818C24.4019 139.925 24.6507 140.09 24.8584 140.312C25.0661 140.53 25.2254 140.806 25.3364 141.139C25.451 141.472 25.5083 141.866 25.5083 142.321ZM24.2085 143.524V142.208C24.2085 141.947 24.1852 141.721 24.1387 141.531C24.0921 141.338 24.0241 141.179 23.9346 141.053C23.8451 140.928 23.734 140.837 23.6016 140.779C23.4727 140.718 23.3223 140.688 23.1504 140.688C22.9857 140.688 22.8371 140.718 22.7046 140.779C22.5757 140.837 22.4665 140.928 22.377 141.053C22.2874 141.179 22.2194 141.338 22.1729 141.531C22.1263 141.721 22.103 141.947 22.103 142.208V143.524C22.103 143.789 22.1263 144.018 22.1729 144.211C22.2194 144.405 22.2874 144.564 22.377 144.689C22.4701 144.815 22.5828 144.908 22.7153 144.969C22.8478 145.03 22.9964 145.06 23.1611 145.06C23.3294 145.06 23.478 145.03 23.6069 144.969C23.7394 144.908 23.8504 144.815 23.9399 144.689C24.0295 144.564 24.0957 144.405 24.1387 144.211C24.1852 144.018 24.2085 143.789 24.2085 143.524Z" fill="#949494"/>
<path d="M43 142.5H31" stroke="white"/>
<path d="M43 0V159" stroke="white"/>
<rect x="401.256" width="10.7436" height="159" fill="#223A3C"/>
<rect x="51" y="82" width="10.7436" height="76.9999" fill="#DED1CB"/>
<path d="M43 159H420" stroke="white"/>
<path d="M56 159V169" stroke="white"/>
<path d="M48.4521 182.974V184H43.6772V183.125L45.96 180.987C46.1963 180.768 46.3825 180.573 46.5186 180.401C46.6582 180.226 46.7585 180.068 46.8193 179.929C46.8802 179.785 46.9106 179.657 46.9106 179.542C46.9106 179.291 46.8283 179.085 46.6636 178.924C46.4989 178.763 46.2625 178.683 45.9546 178.683C45.7004 178.683 45.4891 178.729 45.3208 178.822C45.1561 178.912 45.0343 179.035 44.9556 179.193C44.8768 179.35 44.8374 179.529 44.8374 179.73H43.5376C43.5376 179.35 43.6325 179.003 43.8223 178.688C44.012 178.373 44.2842 178.122 44.6387 177.936C44.9967 177.75 45.4246 177.657 45.9224 177.657C46.4022 177.657 46.8122 177.732 47.1523 177.882C47.4961 178.033 47.7575 178.249 47.9365 178.532C48.1156 178.812 48.2051 179.143 48.2051 179.526C48.2051 179.737 48.1693 179.938 48.0977 180.127C48.0296 180.317 47.9294 180.502 47.7969 180.681C47.6644 180.86 47.5033 181.042 47.3135 181.229C47.1237 181.415 46.9089 181.613 46.6689 181.825L45.3369 182.974H48.4521ZM55.0166 180.321V181.422C55.0166 181.877 54.9593 182.272 54.8447 182.609C54.7337 182.942 54.5744 183.218 54.3667 183.436C54.1626 183.654 53.9155 183.817 53.6255 183.925C53.339 184.032 53.0203 184.086 52.6694 184.086C52.3185 184.086 51.998 184.032 51.708 183.925C51.4215 183.817 51.1745 183.654 50.9668 183.436C50.7591 183.218 50.598 182.942 50.4834 182.609C50.3688 182.272 50.3115 181.877 50.3115 181.422V180.321C50.3115 179.866 50.367 179.472 50.478 179.139C50.5926 178.806 50.7537 178.53 50.9614 178.312C51.1691 178.09 51.4162 177.925 51.7026 177.818C51.9891 177.71 52.3078 177.657 52.6587 177.657C53.0096 177.657 53.3301 177.71 53.6201 177.818C53.9102 177.925 54.159 178.09 54.3667 178.312C54.5744 178.53 54.7337 178.806 54.8447 179.139C54.9593 179.472 55.0166 179.866 55.0166 180.321ZM53.7168 181.524V180.208C53.7168 179.947 53.6935 179.721 53.647 179.531C53.6004 179.338 53.5324 179.179 53.4429 179.053C53.3534 178.928 53.2424 178.837 53.1099 178.779C52.981 178.718 52.8306 178.688 52.6587 178.688C52.494 178.688 52.3454 178.718 52.2129 178.779C52.084 178.837 51.9748 178.928 51.8853 179.053C51.7957 179.179 51.7277 179.338 51.6812 179.531C51.6346 179.721 51.6113 179.947 51.6113 180.208V181.524C51.6113 181.789 51.6346 182.018 51.6812 182.211C51.7277 182.405 51.7957 182.564 51.8853 182.689C51.9784 182.815 52.0911 182.908 52.2236 182.969C52.3561 183.03 52.5047 183.06 52.6694 183.06C52.8377 183.06 52.9863 183.03 53.1152 182.969C53.2477 182.908 53.3587 182.815 53.4482 182.689C53.5378 182.564 53.604 182.405 53.647 182.211C53.6935 182.018 53.7168 181.789 53.7168 181.524ZM61.7744 182.974V184H56.9995V183.125L59.2822 180.987C59.5186 180.768 59.7048 180.573 59.8408 180.401C59.9805 180.226 60.0807 180.068 60.1416 179.929C60.2025 179.785 60.2329 179.657 60.2329 179.542C60.2329 179.291 60.1506 179.085 59.9858 178.924C59.8211 178.763 59.5848 178.683 59.2769 178.683C59.0226 178.683 58.8114 178.729 58.6431 178.822C58.4784 178.912 58.3566 179.035 58.2778 179.193C58.1991 179.35 58.1597 179.529 58.1597 179.73H56.8599C56.8599 179.35 56.9548 179.003 57.1445 178.688C57.3343 178.373 57.6064 178.122 57.9609 177.936C58.319 177.75 58.7469 177.657 59.2446 177.657C59.7244 177.657 60.1344 177.732 60.4746 177.882C60.8184 178.033 61.0798 178.249 61.2588 178.532C61.4378 178.812 61.5273 179.143 61.5273 179.526C61.5273 179.737 61.4915 179.938 61.4199 180.127C61.3519 180.317 61.2516 180.502 61.1191 180.681C60.9867 180.86 60.8255 181.042 60.6357 181.229C60.446 181.415 60.2311 181.613 59.9912 181.825L58.6592 182.974H61.7744ZM68.3389 180.321V181.422C68.3389 181.877 68.2816 182.272 68.167 182.609C68.056 182.942 67.8966 183.218 67.689 183.436C67.4849 183.654 67.2378 183.817 66.9478 183.925C66.6613 184.032 66.3426 184.086 65.9917 184.086C65.6408 184.086 65.3203 184.032 65.0303 183.925C64.7438 183.817 64.4967 183.654 64.2891 183.436C64.0814 183.218 63.9202 182.942 63.8057 182.609C63.6911 182.272 63.6338 181.877 63.6338 181.422V180.321C63.6338 179.866 63.6893 179.472 63.8003 179.139C63.9149 178.806 64.076 178.53 64.2837 178.312C64.4914 178.09 64.7384 177.925 65.0249 177.818C65.3114 177.71 65.63 177.657 65.981 177.657C66.3319 177.657 66.6523 177.71 66.9424 177.818C67.2324 177.925 67.4813 178.09 67.689 178.312C67.8966 178.53 68.056 178.806 68.167 179.139C68.2816 179.472 68.3389 179.866 68.3389 180.321ZM67.0391 181.524V180.208C67.0391 179.947 67.0158 179.721 66.9692 179.531C66.9227 179.338 66.8547 179.179 66.7651 179.053C66.6756 178.928 66.5646 178.837 66.4321 178.779C66.3032 178.718 66.1528 178.688 65.981 178.688C65.8162 178.688 65.6676 178.718 65.5352 178.779C65.4062 178.837 65.297 178.928 65.2075 179.053C65.118 179.179 65.05 179.338 65.0034 179.531C64.9569 179.721 64.9336 179.947 64.9336 180.208V181.524C64.9336 181.789 64.9569 182.018 65.0034 182.211C65.05 182.405 65.118 182.564 65.2075 182.689C65.3006 182.815 65.4134 182.908 65.5459 182.969C65.6784 183.03 65.827 183.06 65.9917 183.06C66.16 183.06 66.3086 183.03 66.4375 182.969C66.57 182.908 66.681 182.815 66.7705 182.689C66.86 182.564 66.9263 182.405 66.9692 182.211C67.0158 182.018 67.0391 181.789 67.0391 181.524Z" fill="#949494"/>
<path d="M114.5 159V169" stroke="white"/>
<path d="M106.952 182.974V184H102.177V183.125L104.46 180.987C104.696 180.768 104.882 180.573 105.019 180.401C105.158 180.226 105.258 180.068 105.319 179.929C105.38 179.785 105.411 179.657 105.411 179.542C105.411 179.291 105.328 179.085 105.164 178.924C104.999 178.763 104.763 178.683 104.455 178.683C104.2 178.683 103.989 178.729 103.821 178.822C103.656 178.912 103.534 179.035 103.456 179.193C103.377 179.35 103.337 179.529 103.337 179.73H102.038C102.038 179.35 102.132 179.003 102.322 178.688C102.512 178.373 102.784 178.122 103.139 177.936C103.497 177.75 103.925 177.657 104.422 177.657C104.902 177.657 105.312 177.732 105.652 177.882C105.996 178.033 106.257 178.249 106.437 178.532C106.616 178.812 106.705 179.143 106.705 179.526C106.705 179.737 106.669 179.938 106.598 180.127C106.53 180.317 106.429 180.502 106.297 180.681C106.164 180.86 106.003 181.042 105.813 181.229C105.624 181.415 105.409 181.613 105.169 181.825L103.837 182.974H106.952ZM113.517 180.321V181.422C113.517 181.877 113.459 182.272 113.345 182.609C113.234 182.942 113.074 183.218 112.867 183.436C112.663 183.654 112.416 183.817 112.125 183.925C111.839 184.032 111.52 184.086 111.169 184.086C110.819 184.086 110.498 184.032 110.208 183.925C109.922 183.817 109.674 183.654 109.467 183.436C109.259 183.218 109.098 182.942 108.983 182.609C108.869 182.272 108.812 181.877 108.812 181.422V180.321C108.812 179.866 108.867 179.472 108.978 179.139C109.093 178.806 109.254 178.53 109.461 178.312C109.669 178.09 109.916 177.925 110.203 177.818C110.489 177.71 110.808 177.657 111.159 177.657C111.51 177.657 111.83 177.71 112.12 177.818C112.41 177.925 112.659 178.09 112.867 178.312C113.074 178.53 113.234 178.806 113.345 179.139C113.459 179.472 113.517 179.866 113.517 180.321ZM112.217 181.524V180.208C112.217 179.947 112.194 179.721 112.147 179.531C112.1 179.338 112.032 179.179 111.943 179.053C111.853 178.928 111.742 178.837 111.61 178.779C111.481 178.718 111.331 178.688 111.159 178.688C110.994 178.688 110.845 178.718 110.713 178.779C110.584 178.837 110.475 178.928 110.385 179.053C110.296 179.179 110.228 179.338 110.181 179.531C110.135 179.721 110.111 179.947 110.111 180.208V181.524C110.111 181.789 110.135 182.018 110.181 182.211C110.228 182.405 110.296 182.564 110.385 182.689C110.478 182.815 110.591 182.908 110.724 182.969C110.856 183.03 111.005 183.06 111.169 183.06C111.338 183.06 111.486 183.03 111.615 182.969C111.748 182.908 111.859 182.815 111.948 182.689C112.038 182.564 112.104 182.405 112.147 182.211C112.194 182.018 112.217 181.789 112.217 181.524ZM120.274 182.974V184H115.5V183.125L117.782 180.987C118.019 180.768 118.205 180.573 118.341 180.401C118.48 180.226 118.581 180.068 118.642 179.929C118.702 179.785 118.733 179.657 118.733 179.542C118.733 179.291 118.651 179.085 118.486 178.924C118.321 178.763 118.085 178.683 117.777 178.683C117.523 178.683 117.311 178.729 117.143 178.822C116.978 178.912 116.857 179.035 116.778 179.193C116.699 179.35 116.66 179.529 116.66 179.73H115.36C115.36 179.35 115.455 179.003 115.645 178.688C115.834 178.373 116.106 178.122 116.461 177.936C116.819 177.75 117.247 177.657 117.745 177.657C118.224 177.657 118.634 177.732 118.975 177.882C119.318 178.033 119.58 178.249 119.759 178.532C119.938 178.812 120.027 179.143 120.027 179.526C120.027 179.737 119.992 179.938 119.92 180.127C119.852 180.317 119.752 180.502 119.619 180.681C119.487 180.86 119.326 181.042 119.136 181.229C118.946 181.415 118.731 181.613 118.491 181.825L117.159 182.974H120.274ZM125.469 177.743V184H124.175V179.247L122.478 179.692V178.672L125.324 177.743H125.469Z" fill="#949494"/>
<path d="M173 159V169" stroke="white"/>
<path d="M165.452 182.974V184H160.677V183.125L162.96 180.987C163.196 180.768 163.382 180.573 163.519 180.401C163.658 180.226 163.758 180.068 163.819 179.929C163.88 179.785 163.911 179.657 163.911 179.542C163.911 179.291 163.828 179.085 163.664 178.924C163.499 178.763 163.263 178.683 162.955 178.683C162.7 178.683 162.489 178.729 162.321 178.822C162.156 178.912 162.034 179.035 161.956 179.193C161.877 179.35 161.837 179.529 161.837 179.73H160.538C160.538 179.35 160.632 179.003 160.822 178.688C161.012 178.373 161.284 178.122 161.639 177.936C161.997 177.75 162.425 177.657 162.922 177.657C163.402 177.657 163.812 177.732 164.152 177.882C164.496 178.033 164.757 178.249 164.937 178.532C165.116 178.812 165.205 179.143 165.205 179.526C165.205 179.737 165.169 179.938 165.098 180.127C165.03 180.317 164.929 180.502 164.797 180.681C164.664 180.86 164.503 181.042 164.313 181.229C164.124 181.415 163.909 181.613 163.669 181.825L162.337 182.974H165.452ZM172.017 180.321V181.422C172.017 181.877 171.959 182.272 171.845 182.609C171.734 182.942 171.574 183.218 171.367 183.436C171.163 183.654 170.916 183.817 170.625 183.925C170.339 184.032 170.02 184.086 169.669 184.086C169.319 184.086 168.998 184.032 168.708 183.925C168.422 183.817 168.174 183.654 167.967 183.436C167.759 183.218 167.598 182.942 167.483 182.609C167.369 182.272 167.312 181.877 167.312 181.422V180.321C167.312 179.866 167.367 179.472 167.478 179.139C167.593 178.806 167.754 178.53 167.961 178.312C168.169 178.09 168.416 177.925 168.703 177.818C168.989 177.71 169.308 177.657 169.659 177.657C170.01 177.657 170.33 177.71 170.62 177.818C170.91 177.925 171.159 178.09 171.367 178.312C171.574 178.53 171.734 178.806 171.845 179.139C171.959 179.472 172.017 179.866 172.017 180.321ZM170.717 181.524V180.208C170.717 179.947 170.694 179.721 170.647 179.531C170.6 179.338 170.532 179.179 170.443 179.053C170.353 178.928 170.242 178.837 170.11 178.779C169.981 178.718 169.831 178.688 169.659 178.688C169.494 178.688 169.345 178.718 169.213 178.779C169.084 178.837 168.975 178.928 168.885 179.053C168.796 179.179 168.728 179.338 168.681 179.531C168.635 179.721 168.611 179.947 168.611 180.208V181.524C168.611 181.789 168.635 182.018 168.681 182.211C168.728 182.405 168.796 182.564 168.885 182.689C168.978 182.815 169.091 182.908 169.224 182.969C169.356 183.03 169.505 183.06 169.669 183.06C169.838 183.06 169.986 183.03 170.115 182.969C170.248 182.908 170.359 182.815 170.448 182.689C170.538 182.564 170.604 182.405 170.647 182.211C170.694 182.018 170.717 181.789 170.717 181.524ZM178.774 182.974V184H174V183.125L176.282 180.987C176.519 180.768 176.705 180.573 176.841 180.401C176.98 180.226 177.081 180.068 177.142 179.929C177.202 179.785 177.233 179.657 177.233 179.542C177.233 179.291 177.151 179.085 176.986 178.924C176.821 178.763 176.585 178.683 176.277 178.683C176.023 178.683 175.811 178.729 175.643 178.822C175.478 178.912 175.357 179.035 175.278 179.193C175.199 179.35 175.16 179.529 175.16 179.73H173.86C173.86 179.35 173.955 179.003 174.145 178.688C174.334 178.373 174.606 178.122 174.961 177.936C175.319 177.75 175.747 177.657 176.245 177.657C176.724 177.657 177.134 177.732 177.475 177.882C177.818 178.033 178.08 178.249 178.259 178.532C178.438 178.812 178.527 179.143 178.527 179.526C178.527 179.737 178.492 179.938 178.42 180.127C178.352 180.317 178.252 180.502 178.119 180.681C177.987 180.86 177.826 181.042 177.636 181.229C177.446 181.415 177.231 181.613 176.991 181.825L175.659 182.974H178.774ZM185.436 182.974V184H180.661V183.125L182.943 180.987C183.18 180.768 183.366 180.573 183.502 180.401C183.642 180.226 183.742 180.068 183.803 179.929C183.864 179.785 183.894 179.657 183.894 179.542C183.894 179.291 183.812 179.085 183.647 178.924C183.482 178.763 183.246 178.683 182.938 178.683C182.684 178.683 182.472 178.729 182.304 178.822C182.139 178.912 182.018 179.035 181.939 179.193C181.86 179.35 181.821 179.529 181.821 179.73H180.521C180.521 179.35 180.616 179.003 180.806 178.688C180.995 178.373 181.268 178.122 181.622 177.936C181.98 177.75 182.408 177.657 182.906 177.657C183.386 177.657 183.796 177.732 184.136 177.882C184.479 178.033 184.741 178.249 184.92 178.532C185.099 178.812 185.188 179.143 185.188 179.526C185.188 179.737 185.153 179.938 185.081 180.127C185.013 180.317 184.913 180.502 184.78 180.681C184.648 180.86 184.487 181.042 184.297 181.229C184.107 181.415 183.892 181.613 183.652 181.825L182.32 182.974H185.436Z" fill="#949494"/>
<path d="M231.5 159V169" stroke="white"/>
<path d="M223.952 182.974V184H219.177V183.125L221.46 180.987C221.696 180.768 221.882 180.573 222.019 180.401C222.158 180.226 222.258 180.068 222.319 179.929C222.38 179.785 222.411 179.657 222.411 179.542C222.411 179.291 222.328 179.085 222.164 178.924C221.999 178.763 221.763 178.683 221.455 178.683C221.2 178.683 220.989 178.729 220.821 178.822C220.656 178.912 220.534 179.035 220.456 179.193C220.377 179.35 220.337 179.529 220.337 179.73H219.038C219.038 179.35 219.132 179.003 219.322 178.688C219.512 178.373 219.784 178.122 220.139 177.936C220.497 177.75 220.925 177.657 221.422 177.657C221.902 177.657 222.312 177.732 222.652 177.882C222.996 178.033 223.257 178.249 223.437 178.532C223.616 178.812 223.705 179.143 223.705 179.526C223.705 179.737 223.669 179.938 223.598 180.127C223.53 180.317 223.429 180.502 223.297 180.681C223.164 180.86 223.003 181.042 222.813 181.229C222.624 181.415 222.409 181.613 222.169 181.825L220.837 182.974H223.952ZM230.517 180.321V181.422C230.517 181.877 230.459 182.272 230.345 182.609C230.234 182.942 230.074 183.218 229.867 183.436C229.663 183.654 229.416 183.817 229.125 183.925C228.839 184.032 228.52 184.086 228.169 184.086C227.819 184.086 227.498 184.032 227.208 183.925C226.922 183.817 226.674 183.654 226.467 183.436C226.259 183.218 226.098 182.942 225.983 182.609C225.869 182.272 225.812 181.877 225.812 181.422V180.321C225.812 179.866 225.867 179.472 225.978 179.139C226.093 178.806 226.254 178.53 226.461 178.312C226.669 178.09 226.916 177.925 227.203 177.818C227.489 177.71 227.808 177.657 228.159 177.657C228.51 177.657 228.83 177.71 229.12 177.818C229.41 177.925 229.659 178.09 229.867 178.312C230.074 178.53 230.234 178.806 230.345 179.139C230.459 179.472 230.517 179.866 230.517 180.321ZM229.217 181.524V180.208C229.217 179.947 229.194 179.721 229.147 179.531C229.1 179.338 229.032 179.179 228.943 179.053C228.853 178.928 228.742 178.837 228.61 178.779C228.481 178.718 228.331 178.688 228.159 178.688C227.994 178.688 227.845 178.718 227.713 178.779C227.584 178.837 227.475 178.928 227.385 179.053C227.296 179.179 227.228 179.338 227.181 179.531C227.135 179.721 227.111 179.947 227.111 180.208V181.524C227.111 181.789 227.135 182.018 227.181 182.211C227.228 182.405 227.296 182.564 227.385 182.689C227.478 182.815 227.591 182.908 227.724 182.969C227.856 183.03 228.005 183.06 228.169 183.06C228.338 183.06 228.486 183.03 228.615 182.969C228.748 182.908 228.859 182.815 228.948 182.689C229.038 182.564 229.104 182.405 229.147 182.211C229.194 182.018 229.217 181.789 229.217 181.524ZM237.274 182.974V184H232.5V183.125L234.782 180.987C235.019 180.768 235.205 180.573 235.341 180.401C235.48 180.226 235.581 180.068 235.642 179.929C235.702 179.785 235.733 179.657 235.733 179.542C235.733 179.291 235.651 179.085 235.486 178.924C235.321 178.763 235.085 178.683 234.777 178.683C234.523 178.683 234.311 178.729 234.143 178.822C233.978 178.912 233.857 179.035 233.778 179.193C233.699 179.35 233.66 179.529 233.66 179.73H232.36C232.36 179.35 232.455 179.003 232.645 178.688C232.834 178.373 233.106 178.122 233.461 177.936C233.819 177.75 234.247 177.657 234.745 177.657C235.224 177.657 235.634 177.732 235.975 177.882C236.318 178.033 236.58 178.249 236.759 178.532C236.938 178.812 237.027 179.143 237.027 179.526C237.027 179.737 236.992 179.938 236.92 180.127C236.852 180.317 236.752 180.502 236.619 180.681C236.487 180.86 236.326 181.042 236.136 181.229C235.946 181.415 235.731 181.613 235.491 181.825L234.159 182.974H237.274ZM240.611 180.353H241.288C241.542 180.353 241.751 180.317 241.916 180.246C242.081 180.17 242.202 180.068 242.281 179.939C242.364 179.811 242.405 179.662 242.405 179.494C242.405 179.34 242.369 179.202 242.297 179.08C242.229 178.958 242.12 178.862 241.97 178.79C241.823 178.718 241.63 178.683 241.39 178.683C241.196 178.683 241.023 178.711 240.869 178.769C240.718 178.826 240.598 178.908 240.509 179.016C240.419 179.123 240.375 179.252 240.375 179.402H239.075C239.075 179.041 239.177 178.731 239.381 178.473C239.589 178.212 239.864 178.011 240.208 177.872C240.555 177.728 240.94 177.657 241.363 177.657C241.71 177.657 242.027 177.694 242.313 177.77C242.6 177.845 242.847 177.958 243.055 178.108C243.266 178.258 243.427 178.444 243.538 178.667C243.649 178.889 243.705 179.145 243.705 179.435C243.705 179.646 243.656 179.845 243.56 180.031C243.463 180.213 243.32 180.376 243.13 180.52C242.94 180.663 242.709 180.776 242.437 180.858C242.165 180.937 241.857 180.976 241.513 180.976H240.611V180.353ZM240.611 181.271V180.654H241.513C241.903 180.654 242.244 180.69 242.534 180.761C242.824 180.833 243.064 180.937 243.253 181.073C243.443 181.209 243.585 181.377 243.678 181.578C243.771 181.775 243.817 181.998 243.817 182.249C243.817 182.543 243.757 182.804 243.635 183.033C243.513 183.259 243.339 183.45 243.114 183.608C242.892 183.765 242.632 183.885 242.335 183.968C242.038 184.047 241.715 184.086 241.368 184.086C241.067 184.086 240.776 184.05 240.493 183.979C240.213 183.907 239.959 183.796 239.73 183.646C239.504 183.492 239.324 183.298 239.188 183.065C239.055 182.833 238.989 182.555 238.989 182.233H240.289C240.289 182.39 240.335 182.532 240.428 182.657C240.521 182.783 240.652 182.881 240.82 182.953C240.989 183.024 241.187 183.06 241.417 183.06C241.656 183.06 241.859 183.024 242.023 182.953C242.188 182.877 242.312 182.775 242.394 182.646C242.476 182.514 242.518 182.36 242.518 182.185C242.518 182.023 242.489 181.886 242.432 181.771C242.374 181.653 242.292 181.558 242.185 181.486C242.081 181.411 241.952 181.357 241.798 181.325C241.647 181.289 241.477 181.271 241.288 181.271H240.611Z" fill="#949494"/>
<path d="M290 159V169" stroke="white"/>
<path d="M282.452 182.974V184H277.677V183.125L279.96 180.987C280.196 180.768 280.382 180.573 280.519 180.401C280.658 180.226 280.758 180.068 280.819 179.929C280.88 179.785 280.911 179.657 280.911 179.542C280.911 179.291 280.828 179.085 280.664 178.924C280.499 178.763 280.263 178.683 279.955 178.683C279.7 178.683 279.489 178.729 279.321 178.822C279.156 178.912 279.034 179.035 278.956 179.193C278.877 179.35 278.837 179.529 278.837 179.73H277.538C277.538 179.35 277.632 179.003 277.822 178.688C278.012 178.373 278.284 178.122 278.639 177.936C278.997 177.75 279.425 177.657 279.922 177.657C280.402 177.657 280.812 177.732 281.152 177.882C281.496 178.033 281.757 178.249 281.937 178.532C282.116 178.812 282.205 179.143 282.205 179.526C282.205 179.737 282.169 179.938 282.098 180.127C282.03 180.317 281.929 180.502 281.797 180.681C281.664 180.86 281.503 181.042 281.313 181.229C281.124 181.415 280.909 181.613 280.669 181.825L279.337 182.974H282.452ZM289.017 180.321V181.422C289.017 181.877 288.959 182.272 288.845 182.609C288.734 182.942 288.574 183.218 288.367 183.436C288.163 183.654 287.916 183.817 287.625 183.925C287.339 184.032 287.02 184.086 286.669 184.086C286.319 184.086 285.998 184.032 285.708 183.925C285.422 183.817 285.174 183.654 284.967 183.436C284.759 183.218 284.598 182.942 284.483 182.609C284.369 182.272 284.312 181.877 284.312 181.422V180.321C284.312 179.866 284.367 179.472 284.478 179.139C284.593 178.806 284.754 178.53 284.961 178.312C285.169 178.09 285.416 177.925 285.703 177.818C285.989 177.71 286.308 177.657 286.659 177.657C287.01 177.657 287.33 177.71 287.62 177.818C287.91 177.925 288.159 178.09 288.367 178.312C288.574 178.53 288.734 178.806 288.845 179.139C288.959 179.472 289.017 179.866 289.017 180.321ZM287.717 181.524V180.208C287.717 179.947 287.694 179.721 287.647 179.531C287.6 179.338 287.532 179.179 287.443 179.053C287.353 178.928 287.242 178.837 287.11 178.779C286.981 178.718 286.831 178.688 286.659 178.688C286.494 178.688 286.345 178.718 286.213 178.779C286.084 178.837 285.975 178.928 285.885 179.053C285.796 179.179 285.728 179.338 285.681 179.531C285.635 179.721 285.611 179.947 285.611 180.208V181.524C285.611 181.789 285.635 182.018 285.681 182.211C285.728 182.405 285.796 182.564 285.885 182.689C285.978 182.815 286.091 182.908 286.224 182.969C286.356 183.03 286.505 183.06 286.669 183.06C286.838 183.06 286.986 183.03 287.115 182.969C287.248 182.908 287.359 182.815 287.448 182.689C287.538 182.564 287.604 182.405 287.647 182.211C287.694 182.018 287.717 181.789 287.717 181.524ZM295.774 182.974V184H291V183.125L293.282 180.987C293.519 180.768 293.705 180.573 293.841 180.401C293.98 180.226 294.081 180.068 294.142 179.929C294.202 179.785 294.233 179.657 294.233 179.542C294.233 179.291 294.151 179.085 293.986 178.924C293.821 178.763 293.585 178.683 293.277 178.683C293.023 178.683 292.811 178.729 292.643 178.822C292.478 178.912 292.357 179.035 292.278 179.193C292.199 179.35 292.16 179.529 292.16 179.73H290.86C290.86 179.35 290.955 179.003 291.145 178.688C291.334 178.373 291.606 178.122 291.961 177.936C292.319 177.75 292.747 177.657 293.245 177.657C293.724 177.657 294.134 177.732 294.475 177.882C294.818 178.033 295.08 178.249 295.259 178.532C295.438 178.812 295.527 179.143 295.527 179.526C295.527 179.737 295.492 179.938 295.42 180.127C295.352 180.317 295.252 180.502 295.119 180.681C294.987 180.86 294.826 181.042 294.636 181.229C294.446 181.415 294.231 181.613 293.991 181.825L292.659 182.974H295.774ZM302.559 181.621V182.652H297.489L297.435 181.841L300.411 177.743H301.426L300.309 179.563L298.735 181.621H302.559ZM301.727 177.743V184H300.432V177.743H301.727Z" fill="#949494"/>
<path d="M348.5 159V169" stroke="white"/>
<path d="M340.952 182.974V184H336.177V183.125L338.46 180.987C338.696 180.768 338.882 180.573 339.019 180.401C339.158 180.226 339.258 180.068 339.319 179.929C339.38 179.785 339.411 179.657 339.411 179.542C339.411 179.291 339.328 179.085 339.164 178.924C338.999 178.763 338.763 178.683 338.455 178.683C338.2 178.683 337.989 178.729 337.821 178.822C337.656 178.912 337.534 179.035 337.456 179.193C337.377 179.35 337.337 179.529 337.337 179.73H336.038C336.038 179.35 336.132 179.003 336.322 178.688C336.512 178.373 336.784 178.122 337.139 177.936C337.497 177.75 337.925 177.657 338.422 177.657C338.902 177.657 339.312 177.732 339.652 177.882C339.996 178.033 340.257 178.249 340.437 178.532C340.616 178.812 340.705 179.143 340.705 179.526C340.705 179.737 340.669 179.938 340.598 180.127C340.53 180.317 340.429 180.502 340.297 180.681C340.164 180.86 340.003 181.042 339.813 181.229C339.624 181.415 339.409 181.613 339.169 181.825L337.837 182.974H340.952ZM347.517 180.321V181.422C347.517 181.877 347.459 182.272 347.345 182.609C347.234 182.942 347.074 183.218 346.867 183.436C346.663 183.654 346.416 183.817 346.125 183.925C345.839 184.032 345.52 184.086 345.169 184.086C344.819 184.086 344.498 184.032 344.208 183.925C343.922 183.817 343.674 183.654 343.467 183.436C343.259 183.218 343.098 182.942 342.983 182.609C342.869 182.272 342.812 181.877 342.812 181.422V180.321C342.812 179.866 342.867 179.472 342.978 179.139C343.093 178.806 343.254 178.53 343.461 178.312C343.669 178.09 343.916 177.925 344.203 177.818C344.489 177.71 344.808 177.657 345.159 177.657C345.51 177.657 345.83 177.71 346.12 177.818C346.41 177.925 346.659 178.09 346.867 178.312C347.074 178.53 347.234 178.806 347.345 179.139C347.459 179.472 347.517 179.866 347.517 180.321ZM346.217 181.524V180.208C346.217 179.947 346.194 179.721 346.147 179.531C346.1 179.338 346.032 179.179 345.943 179.053C345.853 178.928 345.742 178.837 345.61 178.779C345.481 178.718 345.331 178.688 345.159 178.688C344.994 178.688 344.845 178.718 344.713 178.779C344.584 178.837 344.475 178.928 344.385 179.053C344.296 179.179 344.228 179.338 344.181 179.531C344.135 179.721 344.111 179.947 344.111 180.208V181.524C344.111 181.789 344.135 182.018 344.181 182.211C344.228 182.405 344.296 182.564 344.385 182.689C344.478 182.815 344.591 182.908 344.724 182.969C344.856 183.03 345.005 183.06 345.169 183.06C345.338 183.06 345.486 183.03 345.615 182.969C345.748 182.908 345.859 182.815 345.948 182.689C346.038 182.564 346.104 182.405 346.147 182.211C346.194 182.018 346.217 181.789 346.217 181.524ZM354.274 182.974V184H349.5V183.125L351.782 180.987C352.019 180.768 352.205 180.573 352.341 180.401C352.48 180.226 352.581 180.068 352.642 179.929C352.702 179.785 352.733 179.657 352.733 179.542C352.733 179.291 352.651 179.085 352.486 178.924C352.321 178.763 352.085 178.683 351.777 178.683C351.523 178.683 351.311 178.729 351.143 178.822C350.978 178.912 350.857 179.035 350.778 179.193C350.699 179.35 350.66 179.529 350.66 179.73H349.36C349.36 179.35 349.455 179.003 349.645 178.688C349.834 178.373 350.106 178.122 350.461 177.936C350.819 177.75 351.247 177.657 351.745 177.657C352.224 177.657 352.634 177.732 352.975 177.882C353.318 178.033 353.58 178.249 353.759 178.532C353.938 178.812 354.027 179.143 354.027 179.526C354.027 179.737 353.992 179.938 353.92 180.127C353.852 180.317 353.752 180.502 353.619 180.681C353.487 180.86 353.326 181.042 353.136 181.229C352.946 181.415 352.731 181.613 352.491 181.825L351.159 182.974H354.274ZM357.407 181.175L356.375 180.928L356.773 177.743H360.586V178.79H357.847L357.659 180.133C357.756 180.09 357.903 180.04 358.1 179.982C358.3 179.925 358.522 179.896 358.766 179.896C359.213 179.896 359.596 179.979 359.915 180.144C360.234 180.305 360.477 180.539 360.646 180.847C360.817 181.152 360.903 181.52 360.903 181.954C360.903 182.33 360.819 182.681 360.651 183.006C360.483 183.329 360.225 183.59 359.877 183.791C359.534 183.987 359.095 184.086 358.562 184.086C358.164 184.086 357.79 184.016 357.439 183.876C357.088 183.737 356.8 183.533 356.574 183.264C356.352 182.996 356.23 182.668 356.209 182.281H357.487C357.516 182.55 357.627 182.747 357.82 182.872C358.014 182.997 358.261 183.06 358.562 183.06C358.812 183.06 359.014 183.012 359.168 182.915C359.322 182.815 359.433 182.681 359.501 182.512C359.573 182.34 359.609 182.147 359.609 181.932C359.609 181.717 359.564 181.528 359.475 181.363C359.385 181.194 359.253 181.064 359.077 180.971C358.902 180.878 358.689 180.831 358.438 180.831C358.152 180.831 357.935 180.869 357.788 180.944C357.645 181.015 357.518 181.092 357.407 181.175Z" fill="#949494"/>
<path d="M407 159V169" stroke="white"/>
<path d="M399.452 182.974V184H394.677V183.125L396.96 180.987C397.196 180.768 397.382 180.573 397.519 180.401C397.658 180.226 397.758 180.068 397.819 179.929C397.88 179.785 397.911 179.657 397.911 179.542C397.911 179.291 397.828 179.085 397.664 178.924C397.499 178.763 397.263 178.683 396.955 178.683C396.7 178.683 396.489 178.729 396.321 178.822C396.156 178.912 396.034 179.035 395.956 179.193C395.877 179.35 395.837 179.529 395.837 179.73H394.538C394.538 179.35 394.632 179.003 394.822 178.688C395.012 178.373 395.284 178.122 395.639 177.936C395.997 177.75 396.425 177.657 396.922 177.657C397.402 177.657 397.812 177.732 398.152 177.882C398.496 178.033 398.757 178.249 398.937 178.532C399.116 178.812 399.205 179.143 399.205 179.526C399.205 179.737 399.169 179.938 399.098 180.127C399.03 180.317 398.929 180.502 398.797 180.681C398.664 180.86 398.503 181.042 398.313 181.229C398.124 181.415 397.909 181.613 397.669 181.825L396.337 182.974H399.452ZM406.017 180.321V181.422C406.017 181.877 405.959 182.272 405.845 182.609C405.734 182.942 405.574 183.218 405.367 183.436C405.163 183.654 404.916 183.817 404.625 183.925C404.339 184.032 404.02 184.086 403.669 184.086C403.319 184.086 402.998 184.032 402.708 183.925C402.422 183.817 402.174 183.654 401.967 183.436C401.759 183.218 401.598 182.942 401.483 182.609C401.369 182.272 401.312 181.877 401.312 181.422V180.321C401.312 179.866 401.367 179.472 401.478 179.139C401.593 178.806 401.754 178.53 401.961 178.312C402.169 178.09 402.416 177.925 402.703 177.818C402.989 177.71 403.308 177.657 403.659 177.657C404.01 177.657 404.33 177.71 404.62 177.818C404.91 177.925 405.159 178.09 405.367 178.312C405.574 178.53 405.734 178.806 405.845 179.139C405.959 179.472 406.017 179.866 406.017 180.321ZM404.717 181.524V180.208C404.717 179.947 404.694 179.721 404.647 179.531C404.6 179.338 404.532 179.179 404.443 179.053C404.353 178.928 404.242 178.837 404.11 178.779C403.981 178.718 403.831 178.688 403.659 178.688C403.494 178.688 403.345 178.718 403.213 178.779C403.084 178.837 402.975 178.928 402.885 179.053C402.796 179.179 402.728 179.338 402.681 179.531C402.635 179.721 402.611 179.947 402.611 180.208V181.524C402.611 181.789 402.635 182.018 402.681 182.211C402.728 182.405 402.796 182.564 402.885 182.689C402.978 182.815 403.091 182.908 403.224 182.969C403.356 183.03 403.505 183.06 403.669 183.06C403.838 183.06 403.986 183.03 404.115 182.969C404.248 182.908 404.359 182.815 404.448 182.689C404.538 182.564 404.604 182.405 404.647 182.211C404.694 182.018 404.717 181.789 404.717 181.524ZM412.774 182.974V184H408V183.125L410.282 180.987C410.519 180.768 410.705 180.573 410.841 180.401C410.98 180.226 411.081 180.068 411.142 179.929C411.202 179.785 411.233 179.657 411.233 179.542C411.233 179.291 411.151 179.085 410.986 178.924C410.821 178.763 410.585 178.683 410.277 178.683C410.023 178.683 409.811 178.729 409.643 178.822C409.478 178.912 409.357 179.035 409.278 179.193C409.199 179.35 409.16 179.529 409.16 179.73H407.86C407.86 179.35 407.955 179.003 408.145 178.688C408.334 178.373 408.606 178.122 408.961 177.936C409.319 177.75 409.747 177.657 410.245 177.657C410.724 177.657 411.134 177.732 411.475 177.882C411.818 178.033 412.08 178.249 412.259 178.532C412.438 178.812 412.527 179.143 412.527 179.526C412.527 179.737 412.492 179.938 412.42 180.127C412.352 180.317 412.252 180.502 412.119 180.681C411.987 180.86 411.826 181.042 411.636 181.229C411.446 181.415 411.231 181.613 410.991 181.825L409.659 182.974H412.774ZM418.222 177.667H418.404V178.72H418.318C417.935 178.72 417.597 178.763 417.303 178.849C417.013 178.931 416.768 179.059 416.567 179.23C416.37 179.402 416.22 179.619 416.116 179.88C416.016 180.142 415.966 180.448 415.966 180.799V181.717C415.966 181.939 415.993 182.134 416.046 182.303C416.104 182.471 416.182 182.612 416.283 182.727C416.383 182.838 416.501 182.922 416.637 182.979C416.777 183.033 416.927 183.06 417.088 183.06C417.307 183.06 417.497 183.012 417.658 182.915C417.819 182.815 417.942 182.681 418.028 182.512C418.118 182.34 418.163 182.151 418.163 181.943C418.163 181.728 418.12 181.54 418.034 181.379C417.951 181.218 417.83 181.092 417.668 181.003C417.511 180.91 417.318 180.863 417.088 180.863C416.859 180.863 416.653 180.908 416.471 180.998C416.292 181.083 416.148 181.194 416.041 181.331C415.937 181.467 415.882 181.61 415.875 181.76L415.525 181.379C415.536 181.15 415.62 180.919 415.778 180.686C415.935 180.45 416.156 180.251 416.438 180.09C416.721 179.925 417.056 179.843 417.443 179.843C417.89 179.843 418.261 179.936 418.555 180.122C418.852 180.308 419.074 180.561 419.221 180.879C419.371 181.194 419.446 181.545 419.446 181.932C419.446 182.34 419.351 182.707 419.162 183.033C418.972 183.355 418.703 183.611 418.356 183.801C418.009 183.991 417.595 184.086 417.115 184.086C416.743 184.086 416.406 184.029 416.105 183.914C415.805 183.796 415.547 183.629 415.332 183.415C415.121 183.196 414.958 182.935 414.843 182.63C414.729 182.322 414.671 181.977 414.671 181.594V181.164C414.671 180.616 414.748 180.127 414.902 179.698C415.06 179.264 415.289 178.897 415.59 178.597C415.894 178.292 416.267 178.061 416.707 177.904C417.147 177.746 417.652 177.667 418.222 177.667Z" fill="#949494"/>
</svg>
