<svg xmlns="http://www.w3.org/2000/svg" xmlns:xlink="http://www.w3.org/1999/xlink" viewBox="0 0 511.26 154.59"><defs><style>.cls-1,.cls-10,.cls-8{fill:#d1d3d4;}.cls-1,.cls-2{clip-rule:evenodd;}.cls-11,.cls-2,.cls-3,.cls-6{fill:#fff;}.cls-3{font-size:72px;font-family:MicrosoftYaHeiUI, Microsoft YaHei UI;}.cls-4{letter-spacing:0em;}.cls-5{letter-spacing:-0.01em;}.cls-7{fill:none;stroke:#fff;stroke-miterlimit:10;stroke-width:3px;}.cls-11,.cls-8{fill-rule:evenodd;}.cls-9{clip-path:url(#clip-path);}.cls-12{clip-path:url(#clip-path-2);}</style><clipPath id="clip-path" transform="translate(38.85 17.46)"><path id="SVGID" class="cls-1" d="M0,39.26a17.58,17.58,0,0,0,2.81,8.37C8,55.77,18,58.25,25.31,59.44c7.85,1.28,37.47,9.08,46,25.2,2.51,4.76,4.49,12.8-.12,26.31-.85-1.17-2.12-2.86-3.71-4.84A136.21,136.21,0,0,0,52.68,90.85,123.62,123.62,0,0,0,15.33,68.74,141.88,141.88,0,0,1,51.79,93.07a136.65,136.65,0,0,1,17.57,19.67c-14.56,1.16-31.71-.19-44.78-10.44C-.23,82.83-.06,39.27,0,39.26Z"/></clipPath><clipPath id="clip-path-2" transform="translate(38.85 17.46)"><path id="SVGID-2" data-name="SVGID" class="cls-2" d="M152.64,32.69A23.61,23.61,0,0,1,148.79,44C141.66,55,127.93,58.36,118,60Q37,73,53.86,131.28a162,162,0,0,1,26.58-28.87,170.11,170.11,0,0,1,51.2-29.87,194.33,194.33,0,0,0-50,32.88A185.84,185.84,0,0,0,57.58,132c20,1.58,43.47-.24,61.38-14.1C153,91.58,152.73,32.71,152.64,32.69Z"/></clipPath></defs><g id="Layer_2" data-name="Layer 2"><g id="Layer_1-2" data-name="Layer 1"><text class="cls-3" transform="translate(207.03 107.39)">L<tspan class="cls-4" x="36.95" y="0">E</tspan><tspan x="76.85" y="0">XE</tspan><tspan class="cls-5" x="162.88" y="0">C</tspan><tspan x="210.02" y="0">O</tspan></text><g id="logo"><path class="cls-6" d="M20.83,65.58c2.2,1.52,4.47,3,6.75,4.35A49.49,49.49,0,0,1,35.5,48.57l-.15-.17a3.58,3.58,0,0,1-.28-.37h0a3.89,3.89,0,0,1-.25-.4l-.07-.12c-.06-.12-.13-.25-.18-.37s-.13-.33-.19-.5a2.35,2.35,0,0,1-.11-.35,6,6,0,0,1-.17-.76.5.5,0,0,1,0-.12c-.53-3.4,1-7.67,3.17-9.58a9.43,9.43,0,0,1-3.63-4.71A61,61,0,0,0,16.44,66.26,3.07,3.07,0,0,1,20.83,65.58Z" transform="translate(38.85 17.46)"/><path class="cls-6" d="M138.21,74.13A61.18,61.18,0,0,0,97.44,16.46h0l-.87-.3a8.2,8.2,0,0,1-4.12,5.41,13.77,13.77,0,0,1-8,1.34,5.68,5.68,0,0,1-1.21,3.74c.63.08,1.26.17,1.88.27a49.88,49.88,0,0,1,41.71,46.31,3.62,3.62,0,0,1,1.7-.4c4.67,0,4.66,7.24,0,7.24a3.61,3.61,0,0,1-1.74-.42,49.87,49.87,0,0,1-99.58-1.47c-3.41-2-6.8-4.1-10.07-6.35A3.72,3.72,0,0,1,16,70.62c-.07,1.16-.11,2.33-.11,3.51A61.14,61.14,0,0,0,57.23,132a3.3,3.3,0,0,1,2.94-1.57,3.9,3.9,0,0,1,1.22.19,3.53,3.53,0,0,1,1.65-.41,25.9,25.9,0,0,0,10.35-2.39,3.7,3.7,0,0,1,5,1.3,3.93,3.93,0,0,1,.34,2.85,79.68,79.68,0,0,0,12.15-2.43l.43-.15a3.4,3.4,0,0,1,3.44-2.94c1.55,0,3.09-.12,4.62-.29a46.09,46.09,0,0,1,5.48-2,3.44,3.44,0,0,1,2.26.08,3.1,3.1,0,0,1,.57-4.24,53.18,53.18,0,0,1,9.84-6.49,7.79,7.79,0,0,1,0-1.08c.21-3.65,3-6.78,5.45-9.25,2.71-2.74,6.66.26,6.12,3.26A60.78,60.78,0,0,0,138.21,74.13Z" transform="translate(38.85 17.46)"/><path class="cls-6" d="M125.35,111.63q1-1.34,2-2.73a18,18,0,0,0-1.37,1.54C125.9,110.56,125.63,111.12,125.35,111.63Z" transform="translate(38.85 17.46)"/><path class="cls-7" d="M36.38,48.45c.37.07.57.83.53.77a3.44,3.44,0,0,1-.28-.36h0c-.09-.13-.16-.26-.24-.4l-.07-.12c-.06-.11-.13-.24-.18-.36s-.13-.33-.19-.5a2.19,2.19,0,0,1-.1-.34,4.67,4.67,0,0,1-.17-.76.43.43,0,0,1,0-.11c-2.58-.75-3.94-.95-4.09-.62s1.67,1.8,5.61,4.08c-.73-5.82.43-8,1.72-8.87S41.64,40,43.49,39c1.47-.77,2.65-2.67,1.74-4.06a6.13,6.13,0,0,0,6.07-.69,6.23,6.23,0,0,0,2.38-5.65A5.92,5.92,0,0,0,62,27.15l2.47,2.08" transform="translate(38.85 17.46)"/><path class="cls-7" d="M45.47,20.64a1.55,1.55,0,0,0,1.84-.25,2.33,2.33,0,0,0,.44-1.09" transform="translate(38.85 17.46)"/><path class="cls-7" d="M35,36.13c-3.45-4.42-3.46-10.26-.54-13.71s7.23-3.12,7.87-3.09c-.83-3.57,2-7.31,5.53-8.27s7.36.38,10.23,2.67c-.88-2.84.47-6,2.68-8a17.45,17.45,0,0,1,8-3.59,17.2,17.2,0,0,1,9.06,0c2.91.95,5.47,3.48,5.68,6.55a5.1,5.1,0,0,1,4.7-1.8A9.64,9.64,0,0,1,93,9a11.83,11.83,0,0,1,3.16,3.64l.2.38c.07.14.12.28.18.42a2.86,2.86,0,0,1,.15.41c0,.09.06.18.09.27s0,.17.07.26a2.13,2.13,0,0,1,.07.27,2.66,2.66,0,0,1,.07.39.17.17,0,0,1,0,.07c0,.13,0,.26,0,.39s0,.33,0,.5v0a7.77,7.77,0,0,1-4.16,6.49,13.48,13.48,0,0,1-7.82,1.33,5.25,5.25,0,0,1-.17,1.59c-.64,2.45-3,4.4-5.47,5.36A16.52,16.52,0,0,1,62,27.16c-.06-.05-.11-.11-.17-.17a1.73,1.73,0,0,1-.19.28,6,6,0,0,1-5.62,2.26,5.29,5.29,0,0,1-2.52-1.06,6,6,0,0,1-.21,2.45,6.24,6.24,0,0,1-2.18,3.2,6.17,6.17,0,0,1-4.38,1.15,5.43,5.43,0,0,1-1.69-.46,1.9,1.9,0,0,1,.21.43,2.19,2.19,0,0,1,0,1.21,4.1,4.1,0,0,1-1.42,2.1,5.86,5.86,0,0,1-1.65,1" transform="translate(38.85 17.46)"/><path class="cls-7" d="M61.32,13.78a3.47,3.47,0,0,0,.92,1.78,2.79,2.79,0,0,0,3.57.32c1-.77,1.16-2.12,1.72-3.21a2,2,0,0,1,.14-.25" transform="translate(38.85 17.46)"/><path class="cls-7" d="M85.26,12.29a2.9,2.9,0,0,0,1.92,1.4,3.36,3.36,0,0,0,2.66-.06,1.7,1.7,0,0,0,.49-.42" transform="translate(38.85 17.46)"/><path class="cls-7" d="M52,15.85a1.31,1.31,0,0,1-.95.67c-.38.09-.79.09-1.18.18a3,3,0,0,0-2,2.14c0,.15-.08.31-.12.46a2.33,2.33,0,0,1-.44,1.09,1.55,1.55,0,0,1-1.84.25.35.35,0,0,1-.16-.08,2.88,2.88,0,0,1-1.14-1.81,4.27,4.27,0,0,1,.52-3.31c1.19-1.79,4.94-2.46,6.68-1.17C51.86,14.64,52.29,15.29,52,15.85Z" transform="translate(38.85 17.46)"/><path class="cls-7" d="M74.31,8.93c-.56,1-2,1-3.18,1.14a5,5,0,0,0-3.46,2.35,2,2,0,0,0-.14.25c-.56,1.09-.77,2.44-1.72,3.21a2.79,2.79,0,0,1-3.57-.32,3.47,3.47,0,0,1-.92-1.78,4.26,4.26,0,0,1,0-1.88,6.89,6.89,0,0,1,2-3.31c1.64-1.59,4.35-3.2,6.72-3C71.51,5.74,75.49,6.72,74.31,8.93Z" transform="translate(38.85 17.46)"/><path class="cls-7" d="M90.33,13.21a1.7,1.7,0,0,1-.49.42,3.36,3.36,0,0,1-2.66.06,2.9,2.9,0,0,1-1.92-1.4,1.22,1.22,0,0,1-.09-.27c-.44-2,2.57-3,4-2.44A2.44,2.44,0,0,1,90.33,13.21Z" transform="translate(38.85 17.46)"/><rect class="cls-6" x="139.49" y="113.26" width="4.14" height="22.74"/><rect class="cls-6" x="119.39" y="57.66" width="4.38" height="24.76"/><path class="cls-6" d="M77.79,65H74.15l.6-31.19H77.2Q77.5,49.37,77.79,65Z" transform="translate(38.85 17.46)"/><rect class="cls-6" x="75.5" y="69.52" width="6.66" height="2.47"/><rect class="cls-6" x="92.32" y="86.47" width="16.73" height="6.23"/><path class="cls-6" d="M93.63,97.39c-1.95,1.42-3.87,2.88-5.76,4.4a1.87,1.87,0,0,1,1.2,1.72v15h3.07v-15a1.91,1.91,0,0,1,2-1.87h-.46Z" transform="translate(38.85 17.46)"/><path class="cls-6" d="M85.63,94.35V91.59h-3.5v5.55Q83.86,95.72,85.63,94.35Z" transform="translate(38.85 17.46)"/><path class="cls-6" d="M82.13,106.54v12h2v-13.7Z" transform="translate(38.85 17.46)"/><path class="cls-6" d="M95.58,96v5.64h-.45a1.92,1.92,0,0,1,2,1.87v15h2.58V93.28Q97.59,94.6,95.58,96Z" transform="translate(38.85 17.46)"/><path class="cls-6" d="M82.13,84.35v5.38h9.8q3.67-2.55,7.58-4.85l.15-.08V74.31L89.92,65H70.19V84.35Zm.6-16.43h6.34V74H82.73Zm0,9.27h6.34v6.07H82.73Zm-3.59,6.07H72.81V77.19h6.33Zm0-9.26H72.81V67.92h6.33Z" transform="translate(38.85 17.46)"/><path class="cls-6" d="M49.44,94.46,49.16,94v6.53l2.93-2.81A33.57,33.57,0,0,1,49.44,94.46Z" transform="translate(38.85 17.46)"/><path class="cls-6" d="M56.4,85.29c1.25.74,2.48,1.51,3.66,2.33H78.67v2.81H63.49C65.73,93,63,96.5,60.07,96.16c.29.38.56.77.82,1.16L65.42,93l1.66-1.6v8L73.76,93l1.67-1.6v11.3c1.11-.93,2.24-1.83,3.32-2.74q1.2-1,2.4-2V85.29Z" transform="translate(38.85 17.46)"/><path class="cls-6" d="M78.48,109.82a3.39,3.39,0,0,1-2.91,3.23,1.24,1.24,0,0,0-.14.18v5.31h5.72V107.38C80.21,108.2,79.33,109,78.48,109.82Z" transform="translate(38.85 17.46)"/><path class="cls-6" d="M74.34,114.77a28.11,28.11,0,0,1-2.72,3.77h2.83v-3.93Z" transform="translate(38.85 17.46)"/><polygon class="cls-6" points="84.92 118.17 74.74 104.15 67.55 104.15 67.55 107.89 72.7 107.89 80.17 118.17 84.92 118.17"/><polygon class="cls-6" points="86.78 119.1 87.04 119.45 87.04 119.1 86.78 119.1"/><path class="cls-6" d="M35,71.6l2.47,1.68v-7h2.93v7.47H38.17q2.16,1.45,4.33,2.88v-.85h2.92v2.75l2.11,1.36V75.79h2.93v6c1,.62,2,1.22,3,1.81v-29h-19V71.29A3.64,3.64,0,0,1,35,71.6ZM47.53,57h2.93v7.47H47.53Zm0,9.27h2.93v7.47H47.53ZM42.5,57h2.92v7.47H42.5Zm0,9.27h2.92v7.47H42.5Zm-5-9.27h2.93v7.47H37.46Z" transform="translate(38.85 17.46)"/><path class="cls-6" d="M43.44,86.13a4.81,4.81,0,0,1-.4-.52l-2.3-1.49a5,5,0,0,1-.55-.3l-.9-.56H37.46V82.12q-1.49-.93-3-1.83v5.47h1.93l.29.39,10.57,14.56h.93V92.57A53.81,53.81,0,0,0,43.44,86.13Z" transform="translate(38.85 17.46)"/><path class="cls-6" d="M20.83,65.58c2.2,1.51,4.45,2.94,6.73,4.34A49.7,49.7,0,0,1,35.5,48.41l-.15-.16c-.1-.12-.19-.24-.28-.37s0,0,0,0-.17-.26-.25-.39-.05-.08-.07-.13a3.18,3.18,0,0,1-.18-.37c-.07-.16-.13-.32-.19-.5a2.24,2.24,0,0,1-.11-.34,6.6,6.6,0,0,1-.17-.77.5.5,0,0,1,0-.12c-.53-3.4,1-7.66,3.17-9.57A9.46,9.46,0,0,1,33.61,31,61.06,61.06,0,0,0,16.42,66.29,3.07,3.07,0,0,1,20.83,65.58Z" transform="translate(38.85 17.46)"/><path class="cls-6" d="M138.21,74A61.17,61.17,0,0,0,97.44,16.31h0l-.87-.3a8.18,8.18,0,0,1-4.12,5.41,13.69,13.69,0,0,1-8,1.35,5.67,5.67,0,0,1-1.21,3.73c.63.08,1.26.17,1.88.27a49.89,49.89,0,0,1,41.72,46.47,3.55,3.55,0,0,1,1.69-.4c4.67,0,4.66,7.24,0,7.24a3.51,3.51,0,0,1-1.75-.43,49.88,49.88,0,0,1-99.57-1.46c-3.41-2-6.79-4.1-10.07-6.35A3.81,3.81,0,0,1,16,70.6c-.06,1.12-.1,2.24-.1,3.37a61.13,61.13,0,0,0,41.39,57.85,3.29,3.29,0,0,1,2.86-1.44,3.79,3.79,0,0,1,1.21.19,3.6,3.6,0,0,1,1.66-.41,25.9,25.9,0,0,0,10.35-2.39,3.7,3.7,0,0,1,5,1.3,3.93,3.93,0,0,1,.34,2.85,79.68,79.68,0,0,0,12.15-2.43l.43-.15a3.4,3.4,0,0,1,3.44-2.94c1.55,0,3.09-.12,4.62-.29a46.09,46.09,0,0,1,5.48-2,3.37,3.37,0,0,1,2.26.09,3.11,3.11,0,0,1,.57-4.25,53.18,53.18,0,0,1,9.84-6.49,7.79,7.79,0,0,1,0-1.08c.21-3.65,3-6.78,5.45-9.25,2.65-2.68,6.48.13,6.15,3.06A60.8,60.8,0,0,0,138.21,74Z" transform="translate(38.85 17.46)"/><path id="SVGID-3" data-name="SVGID" class="cls-8" d="M0,39.26a17.58,17.58,0,0,0,2.81,8.37C8,55.77,18,58.25,25.31,59.44c7.85,1.28,37.47,9.08,46,25.2,2.51,4.76,4.49,12.8-.12,26.31-.85-1.17-2.12-2.86-3.71-4.84A136.21,136.21,0,0,0,52.68,90.85,123.62,123.62,0,0,0,15.33,68.74,141.88,141.88,0,0,1,51.79,93.07a136.65,136.65,0,0,1,17.57,19.67c-14.56,1.16-31.71-.19-44.78-10.44C-.23,82.83-.06,39.27,0,39.26Z" transform="translate(38.85 17.46)"/><g class="cls-9"><path class="cls-10" d="M82,108.87c-1.23,1-2.39,2.07-3.47,3.12a3.39,3.39,0,0,1-2.91,3.23c-.33.42-.65.86-.95,1.32h8.51v-8.67Z" transform="translate(38.85 17.46)"/><path class="cls-10" d="M-38.85,2.15V116.54H61.89a3.33,3.33,0,0,1,2.48-1,4.41,4.41,0,0,1,.52,0,3.71,3.71,0,0,1,.55-4.38,35.41,35.41,0,0,1,5.63-4.89l.3-.38a3.54,3.54,0,0,1,2.56-1.06h.27a3.35,3.35,0,0,1,1.1.08c1.16-1,2.33-1.9,3.45-2.85,1.45-1.23,2.91-2.43,4.38-3.62V2.15Zm98.93,96.2a19,19,0,0,1,1.44,2.17c2.28,4.08-4,7.72-6.25,3.65-1.56-2.79-4-4.9-5.83-7.54a73.15,73.15,0,0,0-6-8.32,6.14,6.14,0,0,1-.4-.53l-2.26-1.47c-.19-.09-.39-.19-.59-.31-7.59-4.86-15.59-9.06-23-14.17-3.82-2.62-.19-8.9,3.66-6.25s8,5.14,12.09,7.56a3.2,3.2,0,0,1,2.07.63c5,3.42,10,6.72,15.11,10,4.34,2.75,9.26,5,13.07,8.54C66,94.83,63.1,98.69,60.08,98.35Z" transform="translate(38.85 17.46)"/></g><path id="SVGID-4" data-name="SVGID" class="cls-11" d="M152.64,32.69A23.61,23.61,0,0,1,148.79,44C141.66,55,127.93,58.36,118,60Q37,73,53.86,131.28a162,162,0,0,1,26.58-28.87,170.11,170.11,0,0,1,51.2-29.87,194.33,194.33,0,0,0-50,32.88A185.84,185.84,0,0,0,57.58,132c20,1.58,43.47-.24,61.38-14.1C153,91.58,152.73,32.71,152.64,32.69Z" transform="translate(38.85 17.46)"/><g class="cls-12"><path class="cls-6" d="M38.7-17.46V75.21c3.77,2.47,7.57,4.87,11.4,7.25,4.34,2.68,9.26,4.92,13.07,8.33,2.8,2.5-.07,6.26-3.09,5.93a18.36,18.36,0,0,1,1.44,2.12c2.28,4-4,7.53-6.25,3.56-1.56-2.72-4-4.78-5.83-7.35a71.76,71.76,0,0,0-6-8.12,4.81,4.81,0,0,1-.4-.52L40.74,85a4.75,4.75,0,0,1-.55-.28c-.49-.31-1-.61-1.49-.91v53.36H58.3a3,3,0,0,1-.87-.79,4,4,0,0,1-1.25.19c-4.66,0-4.66-7.06,0-7.06a3.32,3.32,0,0,1,2.65,1.15,3.72,3.72,0,0,1,1.34-.24,3.86,3.86,0,0,1,1.22.19,3.69,3.69,0,0,1,1.65-.41,25.9,25.9,0,0,0,10.35-2.39,3.7,3.7,0,0,1,5,1.3,2.13,2.13,0,0,1,.18.41,82.87,82.87,0,0,0,12.31-2.39c4.81-1.4,9.15-3.93,14-5.26a3.55,3.55,0,0,1,1.73-.07,3.25,3.25,0,0,1,1.1-1.83,53.18,53.18,0,0,1,9.84-6.49,7.79,7.79,0,0,1,0-1.08c.21-3.65,3-6.78,5.45-9.25,3.28-3.32,8.4,1.8,5.12,5.12a25,25,0,0,0-2,2.21c-.11.15-.48.92-.8,1.49l.11,0a6.19,6.19,0,0,1,2.13,1.18c4.11,3.64-.2,7.86-3.17,10.23A47.59,47.59,0,0,1,94.7,133.63a3.88,3.88,0,0,1-.92-.09c-.75.26-1.52.5-2.29.71A113.4,113.4,0,0,1,75,137a2.92,2.92,0,0,1-2.82-1.07,34.1,34.1,0,0,1-5.58,1.24H205.91V-17.46ZM103.16,91.8A145.32,145.32,0,0,0,82,107c-.88.73-1.7,1.44-2.5,2.16a3.72,3.72,0,0,1-.44,1.38c-.16.28-.34.56-.53.84a3.45,3.45,0,0,1-3.48,3.9l-.41,0c-.3.22-.61.42-.91.6a20.33,20.33,0,0,1-2.34,3,3.31,3.31,0,0,1-3.43,2.82,4.4,4.4,0,0,1-.83-.09,3.3,3.3,0,0,1-2.71,1.24c-4.4,0-4.64-6.44-.75-7.17a3.13,3.13,0,0,1,.95-.79,3.73,3.73,0,0,1,.87-3.63,35.41,35.41,0,0,1,5.63-4.89l.3-.38a3.11,3.11,0,0,1,1.87-1c1.77-1.61,3.71-3.07,5.51-4.56A146.21,146.21,0,0,1,99.51,85.7C103.54,83.4,107.18,89.5,103.16,91.8Zm25.4-11.73c-4.66,0-4.66-7.24,0-7.24S133.22,80.07,128.56,80.07Z" transform="translate(38.85 17.46)"/></g></g></g></g></svg>